<svg width="32" height="32" viewBox="0 0 32 32" fill="none" xmlns="http://www.w3.org/2000/svg">
<mask id="mask0_1593_21253" style="mask-type:alpha" maskUnits="userSpaceOnUse" x="0" y="5" width="32" height="19">
<path d="M30.5 5.7998C31.0523 5.7998 31.5 6.24752 31.5 6.7998V12.7998C31.5 13.3521 31.0523 13.7998 30.5 13.7998H24V23.7998H8V13.7998H1.5C0.947715 13.7998 0.5 13.3521 0.5 12.7998V6.7998C0.5 6.24752 0.947715 5.7998 1.5 5.7998H30.5Z" fill="#F3F3F3"/>
</mask>
<g mask="url(#mask0_1593_21253)">
<path d="M30.5 5.7998C31.0523 5.7998 31.5 6.24752 31.5 6.7998V12.7998C31.5 13.3521 31.0523 13.7998 30.5 13.7998H24V22.7998C24 23.3521 23.5523 23.7998 23 23.7998H9C8.44772 23.7998 8 23.3521 8 22.7998V13.7998H1.5C0.947715 13.7998 0.5 13.3521 0.5 12.7998V6.7998C0.5 6.24752 0.947715 5.7998 1.5 5.7998H30.5Z" fill="#F3F3F3"/>
<path d="M22.5 5.7998L7.93848 20.3613L6.52441 18.9473L14.5859 10.8857L9.5 5.7998L10.9141 4.38574L16 9.47168L21.0859 4.38574L22.5 5.7998Z" fill="#9C9C9C"/>
<rect x="15.75" y="1.2666" width="6.43025" height="5.76893" transform="rotate(45 15.75 1.2666)" fill="#E2E2E2"/>
</g>
<path d="M10.5 4H21.5L22.5 5.8H9.5L10.5 4Z" fill="#9C9C9C"/>
<rect x="8.5" y="23.7998" width="15" height="3" rx="0.5" fill="#121212"/>
<rect x="14" y="23.3" width="4" height="2.5" rx="0.5" fill="#121212"/>
<path d="M12.5243 25.4927C12.6187 25.2332 12.9057 25.0994 13.1652 25.1938L15.0445 25.8779C15.304 25.9723 15.4378 26.2592 15.3434 26.5187L13.9753 30.2775C13.8809 30.537 13.5939 30.6708 13.3344 30.5763L11.4551 29.8923C11.1956 29.7979 11.0618 29.5109 11.1562 29.2514L12.5243 25.4927Z" fill="#121212"/>
<path d="M16.6564 26.519C16.5619 26.2596 16.6957 25.9726 16.9552 25.8782L18.8346 25.1941C19.0941 25.0997 19.381 25.2335 19.4754 25.493L20.8435 29.2518C20.938 29.5112 20.8042 29.7982 20.5447 29.8926L18.6653 30.5766C18.4058 30.6711 18.1189 30.5373 18.0244 30.2778L16.6564 26.519Z" fill="#121212"/>
</svg>
