<svg width="32" height="32" viewBox="0 0 32 32" fill="none" xmlns="http://www.w3.org/2000/svg">
<rect x="8.75879" y="2.08319" width="1.60577" height="24.886" rx="0.802887" transform="rotate(-25 8.75879 2.08319)" fill="#E21C1C"/>
<path d="M19.8067 21.7927C20.2086 21.6053 20.6869 21.779 20.8744 22.1809L21.8115 24.1908L29.3509 22.8614C30.2241 22.7076 31.0571 23.2907 31.2111 24.1639L31.3505 24.9546C31.5815 26.2646 30.7066 27.5138 29.3967 27.7449L23.0712 28.8603C21.6539 29.1102 20.2898 28.3896 19.6612 27.1758L19.6598 27.1768L19.6098 27.0694C19.6004 27.0496 19.5907 27.0299 19.5817 27.0098L17.9632 23.5381C17.776 23.1363 17.9498 22.6587 18.3515 22.4713L19.8067 21.7927Z" fill="#4D4D4D"/>
<path d="M23.6328 23.8696L26.0049 23.4513L28.0254 27.9867L25.6533 28.4049L23.6328 23.8696Z" fill="#E2E2E2"/>
<rect width="1.60577" height="24.886" rx="0.802887" transform="matrix(-0.906309 -0.422615 -0.422622 0.906307 23.2422 2.08289)" fill="#0C65DA"/>
<path d="M12.1943 21.7924C11.7924 21.605 11.314 21.7787 11.1266 22.1806L10.1894 24.1905L2.65006 22.8611C1.77684 22.7073 0.943875 23.2904 0.789841 24.1636L0.65042 24.9543C0.419437 26.2643 1.29433 27.5135 2.60423 27.7446L8.92976 28.86C10.347 29.1099 11.7112 28.3893 12.3398 27.1755L12.3412 27.1765L12.3912 27.0691C12.4006 27.0493 12.4103 27.0296 12.4192 27.0095L14.0377 23.5378C14.225 23.136 14.0511 22.6584 13.6494 22.471L12.1943 21.7924Z" fill="#4D4D4D"/>
<path d="M8.36914 23.8696L5.99703 23.4513L3.97654 27.9867L6.3486 28.4049L8.36914 23.8696Z" fill="#E2E2E2"/>
</svg>
