<svg width="32" height="32" viewBox="0 0 32 32" fill="none" xmlns="http://www.w3.org/2000/svg">
<path d="M11 1.3125L24.7382 5.35313C25.6953 5.63464 25.6953 6.99036 24.7382 7.27187L11 11.3125V1.3125Z" fill="#E21C1C"/>
<rect x="10" width="2" height="26.125" rx="1" fill="#121212"/>
<path d="M1 25.9196C1 25.4728 1.1489 25.0378 1.45819 24.7153C2.5395 23.5879 5.47835 21 9.67188 21C15.0332 21 15.8535 22.8562 18.7246 23.25C21.5957 23.6437 23.0105 22.8266 25.7998 23.0109C28.2594 23.1734 29.778 24.1404 30.4984 24.7431C30.8464 25.0342 31 25.4772 31 25.9309V29.5C31 29.7761 30.7761 30 30.5 30H1.5C1.22386 30 1 29.7761 1 29.5V25.9196Z" fill="#88C926"/>
</svg>
