<svg width="32" height="32" viewBox="0 0 32 32" fill="none" xmlns="http://www.w3.org/2000/svg">
<path d="M8.63672 1C10.0423 1 11.1825 2.13939 11.1826 3.54492V10.7285C13.3283 11.7293 14.8568 13.9554 14.9893 16.5781H15V17.4258L14.96 17.6924C14.9381 17.9064 14.9083 18.1176 14.8682 18.3252L13.2617 29.29C13.1178 30.272 12.2757 31 11.2832 31H5.99121C4.99868 31 4.15666 30.272 4.0127 29.29L2.4082 18.3389C2.36684 18.1269 2.33582 17.9111 2.31348 17.6924L2.27441 17.4258V16.5781H2.28418C2.41662 13.9551 3.94569 11.7292 6.0918 10.7285V3.54492C6.09188 2.13952 7.23135 1.00022 8.63672 1Z" fill="#E2E2E2"/>
<path d="M6.0918 6.51434H11.182V7.53238H6.0918V6.51434Z" fill="#E21C1C"/>
<path d="M6.0918 8.3811H11.182V9.39914H6.0918V8.3811Z" fill="#E21C1C"/>
<path d="M23.3623 1C24.7679 1 25.9081 2.13939 25.9082 3.54492V10.7285C28.0539 11.7293 29.5824 13.9554 29.7148 16.5781H29.7256V17.4258L29.6855 17.6924C29.6637 17.9064 29.6338 18.1176 29.5938 18.3252L27.9873 29.29C27.8434 30.272 27.0013 31 26.0088 31H20.7168C19.7243 31 18.8822 30.272 18.7383 29.29L17.1338 18.3389C17.0924 18.1269 17.0614 17.9111 17.0391 17.6924L17 17.4258V16.5781H17.0098C17.1422 13.9551 18.6713 11.7292 20.8174 10.7285V3.54492C20.8175 2.13952 21.9569 1.00022 23.3623 1Z" fill="#E2E2E2"/>
<path d="M20.8174 6.51434H25.9075V7.53238H20.8174V6.51434Z" fill="#E21C1C"/>
<path d="M20.8174 8.3811H25.9075V9.39914H20.8174V8.3811Z" fill="#E21C1C"/>
</svg>
