<svg width="32" height="32" viewBox="0 0 32 32" fill="none" xmlns="http://www.w3.org/2000/svg">
<rect x="0.960938" y="15.8607" width="5.88603" height="8.09329" rx="1" transform="rotate(-14.9316 0.960938 15.8607)" fill="#F7E0BF"/>
<path d="M7.3058 18.3795C8.04654 18.182 8.80781 18.6221 9.00534 19.3629L9.43243 20.9644C9.4755 21.126 9.62759 21.2338 9.79425 21.221L13.7742 20.916C15.4551 20.787 17.0482 21.6843 17.809 23.1888L19.0732 25.6884C19.2721 26.0817 19.0586 26.5585 18.6327 26.6721L4.05417 30.5598C3.69812 30.6547 3.33082 30.4555 3.2232 30.1031C2.98958 29.337 2.60879 28.0211 2.43535 27.0409C2.19778 25.6982 2.10896 23.5827 2.09551 23.2315C2.09451 23.2056 2.09072 23.1812 2.08403 23.1561L1.59917 21.3379C1.40164 20.5971 1.84199 19.8365 2.58273 19.639L7.3058 18.3795Z" fill="#C5C5C5"/>
<mask id="mask0_1593_21528" style="mask-type:alpha" maskUnits="userSpaceOnUse" x="1" y="18" width="19" height="13">
<path d="M7.31301 18.3776C8.05374 18.18 8.81501 18.6202 9.01254 19.361L9.43998 20.9638C9.48305 21.1253 9.63514 21.2332 9.8018 21.2204L13.7742 20.916C15.4551 20.787 17.0482 21.6843 17.809 23.1888L19.0732 25.6884C19.2721 26.0817 19.0586 26.5585 18.6327 26.6721L4.05417 30.5598C3.69812 30.6547 3.33082 30.4555 3.2232 30.1031C2.98958 29.337 2.60879 28.0211 2.43535 27.0409C2.18725 25.6387 2.10128 23.3938 2.09408 23.1954C2.09374 23.1863 2.09976 23.1796 2.10859 23.177C2.11907 23.174 2.12521 23.1632 2.1224 23.1527L1.63585 21.3281C1.43831 20.5874 1.87867 19.8268 2.6194 19.6292L7.31301 18.3776Z" fill="#ED6E00"/>
</mask>
<g mask="url(#mask0_1593_21528)">
<path d="M3.04688 30.828L19.3039 26.4927L18.8566 24.8156L2.59962 29.1508L3.04688 30.828Z" fill="#4D4D4D"/>
</g>
<mask id="mask1_1593_21528" style="mask-type:alpha" maskUnits="userSpaceOnUse" x="7" y="1" width="24" height="24">
<circle cx="18.9395" cy="13" r="11.5" fill="#ED6E00"/>
</mask>
<g mask="url(#mask1_1593_21528)">
<circle cx="18.9395" cy="13" r="11.5" fill="#F3F3F3"/>
<ellipse cx="18.9395" cy="24.9998" rx="4.5" ry="7.5" fill="#0C65DA"/>
<ellipse cx="4.5" cy="7.5" rx="4.5" ry="7.5" transform="matrix(0 -1 -1 0 14.4395 17.4998)" fill="#E21C1C"/>
<ellipse cx="4.5" cy="7.5" rx="4.5" ry="7.5" transform="matrix(0 -1 -1 0 38.4395 17.5)" fill="#E21C1C"/>
<ellipse cx="18.9395" cy="0.999817" rx="4.5" ry="7.5" fill="#0C65DA"/>
</g>
</svg>
