<svg width="32" height="32" viewBox="0 0 32 32" fill="none" xmlns="http://www.w3.org/2000/svg">
<path d="M17.4185 25.2155C18.2054 26.4839 17.5409 28.3201 15.9343 29.3169C14.3277 30.3136 12.3874 30.0934 11.6005 28.8251C10.8137 27.5567 11.4782 25.7204 13.0848 24.7237C14.6914 23.7269 16.6317 23.9471 17.4185 25.2155Z" fill="#4D4D4D"/>
<path d="M29.4107 22.7062C30.1976 23.9746 29.5331 25.8108 27.9265 26.8076C26.3199 27.8044 24.3796 27.5842 23.5927 26.3158C22.8058 25.0474 23.4704 23.2111 25.077 22.2144C26.6836 21.2176 28.6239 21.4378 29.4107 22.7062Z" fill="#4D4D4D"/>
<path d="M13.483 12.8431C13.3894 12.3956 13.6762 11.9569 14.1237 11.8633L25.9066 9.39839C26.3541 9.30477 26.7927 9.59165 26.8863 10.0391L27.1376 11.2404C27.2312 11.6879 26.9443 12.1265 26.4968 12.2202L14.714 14.6851C14.2665 14.7787 13.8278 14.4918 13.7342 14.0444L13.483 12.8431Z" fill="#4D4D4D"/>
<path d="M14.2638 16.5742C14.1823 16.1846 14.432 15.8027 14.8216 15.7212L26.8141 13.2124C27.2037 13.1309 27.5856 13.3807 27.6671 13.7703C27.7486 14.1599 27.4988 14.5418 27.1092 14.6233L15.1168 17.1321C14.7272 17.2136 14.3453 16.9638 14.2638 16.5742Z" fill="#4D4D4D"/>
<path d="M13.461 12.7383C13.3795 12.3487 13.6293 11.9668 14.0189 11.8853C14.4085 11.8038 14.7904 12.0535 14.8719 12.4431L17.6756 25.8465L16.2647 26.1417L13.461 12.7383Z" fill="#4D4D4D"/>
<path d="M25.4522 10.2294C25.3708 9.83976 25.6205 9.45785 26.0101 9.37635C26.3997 9.29485 26.7816 9.54461 26.8631 9.93422L29.6668 23.3376L28.2559 23.6328L25.4522 10.2294Z" fill="#4D4D4D"/>
<path d="M8.71989 14.9683C8.69358 16.4607 7.13981 17.6435 5.24944 17.6102C3.35907 17.5768 1.84794 16.3399 1.87425 14.8475C1.90055 13.3551 3.45432 12.1723 5.34469 12.2056C7.23507 12.239 8.74619 13.4759 8.71989 14.9683Z" fill="#4D4D4D"/>
<path d="M12.1567 2.33759C12.2994 1.96602 12.7163 1.78049 13.0878 1.92321C13.4594 2.06592 13.6449 2.48284 13.5022 2.85442L8.59291 15.6376L7.24733 15.1208L12.1567 2.33759Z" fill="#4D4D4D"/>
<path d="M11.7269 16.2759C11.7269 16.7045 11.3794 17.052 10.9509 17.052C10.5223 17.052 10.1748 16.7045 10.1748 16.2759C10.1748 15.8473 10.5222 15.4999 10.9508 15.4999C11.3794 15.4999 11.7269 15.8473 11.7269 16.2759Z" fill="#4D4D4D"/>
</svg>
