<svg width="32" height="32" viewBox="0 0 32 32" fill="none" xmlns="http://www.w3.org/2000/svg">
<path d="M20.0186 20.9485L21.4947 19.9737L24.0947 23.9093L22.6185 24.8841L20.0186 20.9485Z" fill="#E21C1C"/>
<path d="M21.994 25.4504C21.6602 24.9452 21.7993 24.2651 22.3046 23.9315L23.4271 23.1902C23.9324 22.8565 24.6125 22.9956 24.9463 23.5008L28.2877 28.5586C28.6214 29.0638 28.4824 29.7438 27.9771 30.0775L26.8546 30.8187C26.3493 31.1524 25.6691 31.0134 25.3353 30.5082L21.994 25.4504Z" fill="#4D4D4D"/>
<path d="M15.2645 3.78904L16.6568 2.86857C16.8665 2.98604 17.0708 3.1143 17.2688 3.25383L15.6266 4.33851L16.8354 6.16747L18.6655 4.95871L17.8306 3.6946C18.3029 4.10535 18.7296 4.58476 19.0915 5.1325C19.4058 5.60835 19.7011 6.22305 19.9701 6.93382L19.0286 5.50838L17.1985 6.71714L18.4072 8.54705L20.1383 7.4028C20.2102 7.61306 20.2815 7.82959 20.3483 8.05275L18.7704 9.09576L19.9783 10.9245L20.8945 10.3194C20.9387 10.5526 20.9798 10.7886 21.018 11.0264L20.3414 11.4742L21.244 12.8409C21.2594 13.0151 21.274 13.1896 21.2856 13.3637C21.3054 13.6598 21.3168 13.952 21.325 14.2389L19.5337 15.4237L20.7423 17.2536L21.2024 16.949C21.1706 17.1798 21.135 17.4014 21.0917 17.6121C21.0135 17.992 20.9198 18.3071 20.8234 18.568L20.5563 18.1635L18.7251 19.373L18.993 19.7786C18.7146 19.765 18.3867 19.728 18.0054 19.6505C17.7949 19.6078 17.5776 19.5526 17.3532 19.4913L17.814 19.1878L16.6044 17.3577L14.8114 18.5411C14.5505 18.4209 14.2859 18.2948 14.0211 18.1603C13.8657 18.0813 13.7115 17.9994 13.5575 17.917L12.6548 16.5503L11.9762 16.9977C11.7722 16.8691 11.5709 16.7387 11.3735 16.6064L12.2918 16.0007L11.0839 14.1719L9.50426 15.2136C9.32511 15.0645 9.15304 14.9148 8.98774 14.7661L10.7208 13.6222L9.51215 11.7923L7.68208 13.0011L8.62435 14.4277C8.07554 13.901 7.6251 13.3883 7.31053 12.9122C6.94728 12.3623 6.67285 11.7795 6.48027 11.1815L7.31903 12.4514L9.1489 11.2436L7.94024 9.41368L6.29802 10.4984C6.24744 10.2617 6.20851 10.0238 6.18274 9.78505L7.57795 8.86517L6.4102 7.09843C6.52416 6.69566 6.67324 6.30242 6.85769 5.92403L8.38563 4.91566L7.96701 4.28187C8.11631 4.11733 8.27506 3.95945 8.44174 3.80777L8.93418 4.55333L10.7654 3.34382L10.2737 2.5994C10.4787 2.50571 10.6861 2.42153 10.8961 2.34886L11.314 2.98149L12.8398 1.97369C13.2606 1.95253 13.681 1.96993 14.0965 2.02326L15.2645 3.78904ZM13.2036 16.187L14.4132 18.0172L16.2421 16.8092L15.0334 14.9792L13.2036 16.187ZM17.1541 16.9946L18.3628 18.8245L20.194 17.615L18.9853 15.7851L17.1541 16.9946ZM11.6326 13.8086L12.8413 15.6385L14.6704 14.4296L13.4625 12.6008L11.6326 13.8086ZM15.5832 14.6162L16.7918 16.4461L18.6228 15.2375L17.4142 13.4076L15.5832 14.6162ZM10.0607 11.43L11.2703 13.2601L13.0994 12.0511L11.8908 10.2212L10.0607 11.43ZM14.0112 12.2375L15.2199 14.0674L17.0511 12.8579L15.8423 11.029L14.0112 12.2375ZM17.9627 13.0453L19.1714 14.8752L21.0015 13.6664L19.7918 11.8363L17.9627 13.0453ZM12.4393 9.85891L13.6489 11.689L15.4802 10.4795L14.2715 8.64958L12.4393 9.85891ZM8.48976 9.05156L9.69861 10.8805L11.5275 9.67252L10.3196 7.84375L8.48976 9.05156ZM16.3908 10.6666L17.5997 12.4956L19.4296 11.2878L18.2207 9.45885L16.3908 10.6666ZM6.91805 6.67197L8.1267 8.50189L9.95658 7.29409L8.74792 5.46417L6.91805 6.67197ZM10.8684 7.48048L12.0772 9.30944L13.9083 8.10087L12.6996 6.27096L10.8684 7.48048ZM14.8191 8.28706L16.0287 10.1172L17.8576 8.90918L16.649 7.07926L14.8191 8.28706ZM9.29648 5.10185L10.5061 6.93196L12.3373 5.72244L11.1277 3.89233L9.29648 5.10185ZM13.248 5.90959L14.4568 7.73855L16.2857 6.53055L15.078 4.70083L13.248 5.90959ZM11.6763 3.53001L12.8859 5.36012L14.7148 4.15212L13.5061 2.32221L11.6763 3.53001Z" fill="#9C9C9C"/>
<path d="M19.0898 5.13185C16.9413 1.8791 12.5629 0.984108 9.30983 3.13274C6.05678 5.28138 5.16138 9.65975 7.30981 12.9125C8.40218 14.5664 11.1116 16.6838 14.0197 18.1614C15.4504 18.8883 16.8418 19.4149 18.004 19.651C19.2374 19.9015 19.9067 19.7645 20.1771 19.5859L20.9182 20.7079C17.9805 22.6483 8.74535 17.526 6.18769 13.6537C3.63003 9.78134 4.69606 4.56863 8.56874 2.01073C12.4414 -0.54717 17.6542 0.518376 20.2119 4.39069C22.7695 8.263 23.8559 18.7675 20.9182 20.7079L20.1771 19.5859C20.4476 19.4073 20.8363 18.8454 21.09 17.6127C21.329 16.4511 21.3908 14.9647 21.2838 13.3635C21.0662 10.1088 20.1821 6.7857 19.0898 5.13185Z" fill="#E21C1C"/>
<ellipse cx="9.44204" cy="24.8843" rx="3.00063" ry="3" fill="#4D4D4D"/>
</svg>
