<svg width="32" height="32" viewBox="0 0 32 32" fill="none" xmlns="http://www.w3.org/2000/svg">
<circle cx="16" cy="16" r="15" fill="#F3F3F3"/>
<path d="M25.1782 24.6234C25.6884 25.2444 26.2535 25.819 26.8646 26.3409C26.5397 26.6821 26.1992 27.0083 25.8438 27.3177C25.2109 26.767 24.6241 26.1643 24.0914 25.516L25.1782 24.6234ZM22.6751 19.9478C22.9353 20.8067 23.2791 21.6305 23.6959 22.4087L22.4563 23.0715C21.9963 22.2126 21.6176 21.3038 21.3302 20.3552L22.6751 19.9478ZM22.1588 14.6652C22.1161 15.1039 22.0938 15.5493 22.0938 16C22.0938 16.4507 22.1161 16.8961 22.1588 17.3348L20.7589 17.4703C20.7118 16.9866 20.6875 16.4961 20.6875 16C20.6875 15.5036 20.7118 15.0128 20.7589 14.5287L22.1588 14.6652ZM23.6959 9.59131C23.2791 10.3695 22.9353 11.1933 22.6751 12.0522L21.3302 11.6439C21.5906 10.7846 21.9253 9.95757 22.3281 9.17108L22.4563 8.92755L23.6959 9.59131ZM25.8428 4.68134C26.1985 4.9909 26.5395 5.31685 26.8646 5.6582C26.2533 6.18023 25.6886 6.75544 25.1782 7.37665L24.0923 6.48401L24.0914 6.48309C24.6241 5.83482 25.2102 5.23202 25.8428 4.68134Z" fill="#E21C1C"/>
<path d="M7.9079 25.516C7.37505 26.1645 6.7884 26.7669 6.15558 27.3177C5.80011 27.0083 5.45961 26.6821 5.13477 26.3409C5.74602 25.8188 6.31166 25.2446 6.82208 24.6234L7.9079 25.516ZM10.6691 20.3552C10.3817 21.3039 10.0031 22.2126 9.54303 23.0715L8.30432 22.4087C8.72111 21.6305 9.0649 20.8067 9.32513 19.9478L10.6691 20.3552ZM11.2404 14.5287C11.2875 15.0128 11.3127 15.5035 11.3127 16C11.3127 16.4961 11.2875 16.9866 11.2404 17.4703L9.84149 17.3348C9.88419 16.8961 9.90649 16.4507 9.90649 16C9.90649 15.5493 9.88419 15.1039 9.84149 14.6652L11.2404 14.5287ZM9.54303 8.92755C10.0031 9.78645 10.3817 10.6953 10.6691 11.6439L9.32513 12.0522C9.0649 11.1933 8.72111 10.3695 8.30432 9.59131L9.54303 8.92755ZM6.15649 4.68134C6.78911 5.23202 7.37519 5.83481 7.9079 6.48309L6.82208 7.37665C6.31154 6.75526 5.74619 6.18035 5.13477 5.6582C5.45977 5.31685 5.80084 4.99091 6.15649 4.68134Z" fill="#E21C1C"/>
</svg>
