<svg width="32" height="32" viewBox="0 0 32 32" fill="none" xmlns="http://www.w3.org/2000/svg">
<mask id="mask0_1593_21170" style="mask-type:alpha" maskUnits="userSpaceOnUse" x="1" y="1" width="30" height="30">
<circle cx="16" cy="16" r="15" fill="#ED6E00"/>
</mask>
<g mask="url(#mask0_1593_21170)">
<rect x="-0.0527344" y="5.94983" width="5.625" height="34.0508" transform="rotate(-45 -0.0527344 5.94983)" fill="#F3F3F3"/>
<rect x="3.9248" y="1.97235" width="5.625" height="34.0508" transform="rotate(-45 3.9248 1.97235)" fill="#F3F3F3"/>
<rect x="-4.03027" y="9.92731" width="5.625" height="34.0508" transform="rotate(-45 -4.03027 9.92731)" fill="#F3F3F3"/>
<rect x="24.0254" y="1.97241" width="5.625" height="34.0508" transform="rotate(45 24.0254 1.97241)" fill="#F3F3F3"/>
<rect x="28.0029" y="5.94989" width="5.625" height="34.0508" transform="rotate(45 28.0029 5.94989)" fill="#F3F3F3"/>
<rect x="20.0479" y="-2.00507" width="5.625" height="34.0508" transform="rotate(45 20.0479 -2.00507)" fill="#F3F3F3"/>
<path d="M-1.02539 23.7344L-1.02539 18.5781L33.0254 18.5781V23.7344L-1.02539 23.7344Z" fill="#F3F3F3"/>
<path d="M-1.49414 18.1094L33.4946 18.1094V24.2031L-1.49414 24.2031L-1.49414 18.1094ZM32.5571 23.2656V19.0469L-0.556641 19.0469L-0.556641 23.2656L32.5571 23.2656Z" fill="#9C9C9C"/>
<path d="M-1.02539 18.5781L-1.02539 13.4219L33.0254 13.4219V18.5781L-1.02539 18.5781Z" fill="#F3F3F3"/>
<path d="M-1.49414 12.9531L33.4946 12.9531V19.0469L-1.49414 19.0469L-1.49414 12.9531ZM32.5571 18.1094V13.8906L-0.556641 13.8906L-0.556641 18.1094L32.5571 18.1094Z" fill="#9C9C9C"/>
<path d="M-1.02539 13.4219L-1.02539 8.26562L33.0254 8.26563V13.4219L-1.02539 13.4219Z" fill="#F3F3F3"/>
<path d="M-1.49414 7.79688L33.4946 7.79688V13.8906L-1.49414 13.8906L-1.49414 7.79688ZM32.5571 12.9531V8.73438L-0.556641 8.73438L-0.556641 12.9531L32.5571 12.9531Z" fill="#9C9C9C"/>
<path d="M8.26562 0.472656H13.4219V31.5273H8.26562V0.472656Z" fill="#F3F3F3"/>
<path d="M13.8906 0.00390625V31.9961H7.79688V0.00390625H13.8906ZM8.73438 31.0586H12.9531V0.941406H8.73438V31.0586Z" fill="#9C9C9C"/>
<path d="M13.4219 0.472656H18.5781V31.5273H13.4219V0.472656Z" fill="#F3F3F3"/>
<path d="M19.0469 0.00390625V31.9961H12.9531V0.00390625H19.0469ZM13.8906 31.0586H18.1094V0.941406H13.8906V31.0586Z" fill="#9C9C9C"/>
<path d="M18.5781 0.472656H23.7344V31.5273H18.5781V0.472656Z" fill="#F3F3F3"/>
<path d="M24.2031 0.00390625V31.9961H18.1094V0.00390625H24.2031ZM19.0469 31.0586H23.2656V0.941406H19.0469V31.0586Z" fill="#9C9C9C"/>
<path d="M30.0625 16C30.0625 8.2335 23.7665 1.9375 16 1.9375C8.2335 1.9375 1.9375 8.2335 1.9375 16C1.9375 23.7665 8.2335 30.0625 16 30.0625V31C7.71573 31 1 24.2843 1 16C1 7.71573 7.71573 1 16 1C24.2843 1 31 7.71573 31 16C31 24.2843 24.2843 31 16 31V30.0625C23.7665 30.0625 30.0625 23.7665 30.0625 16Z" fill="#C5C5C5"/>
</g>
</svg>
