<svg width="32" height="32" viewBox="0 0 32 32" fill="none" xmlns="http://www.w3.org/2000/svg">
<path d="M29.3042 29.3548L29.7004 28.5051C29.8755 28.1297 30.3217 27.9673 30.6971 28.1424C31.0725 28.3174 31.2349 28.7637 31.0599 29.1391L30.6637 29.9887C30.0218 31.3652 28.3856 31.9607 27.0091 31.3189L1.17936 19.2743C0.803957 19.0992 0.641541 18.653 0.816595 18.2776C0.991649 17.9022 1.43788 17.7397 1.81329 17.9148L27.6431 29.9594C28.2687 30.2512 29.0125 29.9805 29.3042 29.3548Z" fill="#121212"/>
<path d="M7.9309 20.769L6.57144 20.1351L6.99405 19.2287L8.35352 19.8627L7.9309 20.769Z" fill="#121212"/>
<path d="M21.7688 27.2219L20.4093 26.5879L20.8319 25.6816L22.1914 26.3156L21.7688 27.2219Z" fill="#121212"/>
<path d="M22.1771 3.41414C23.1782 3.88095 23.6122 5.07133 23.1454 6.07241L20.023 12.7684C19.9212 12.9867 19.9895 13.2465 20.1854 13.3865L24.8648 16.7302C26.8413 18.1423 27.7714 20.607 27.2207 22.9729L26.3058 26.9037C26.1617 27.5223 25.4849 27.8515 24.9092 27.5832L5.20676 18.3958C4.7256 18.1714 4.50407 17.6116 4.71106 17.1227C5.16145 16.0603 5.95774 14.2542 6.67265 13.0108C7.65194 11.3076 9.51019 8.88826 9.82017 8.48777C9.84308 8.45817 9.86143 8.42773 9.87725 8.39381L13.1362 1.40503C13.603 0.403953 14.7929 -0.0291574 15.794 0.437654L22.1771 3.41414Z" fill="#F4C33D"/>
<mask id="mask0_1593_21480" style="mask-type:alpha" maskUnits="userSpaceOnUse" x="4" y="0" width="24" height="28">
<path d="M22.1869 3.41868C23.1879 3.88549 23.6219 5.07587 23.1551 6.07695L20.0319 12.7747C19.9301 12.993 19.9984 13.2528 20.1943 13.3928L24.8648 16.7302C26.8413 18.1423 27.7714 20.607 27.2207 22.9729L26.3058 26.9037C26.1617 27.5223 25.4849 27.8515 24.9092 27.5832L5.20676 18.3958C4.7256 18.1714 4.50407 17.6116 4.71106 17.1227C5.16145 16.0603 5.95774 14.2542 6.67265 13.0108C7.69533 11.2321 9.67649 8.67238 9.85195 8.44659C9.86007 8.43614 9.8729 8.43433 9.88499 8.43969C9.89935 8.44605 9.91617 8.43975 9.92281 8.42551L13.1857 1.42814C13.6525 0.427065 14.8425 -0.00604547 15.8436 0.460766L22.1869 3.41868Z" fill="#F4C33D"/>
</mask>
<g mask="url(#mask0_1593_21480)">
<path d="M22.1213 14.2072L27.1306 17.7866C29.107 19.1987 30.0373 21.6635 29.4866 24.0293L28.5716 27.9601C28.4276 28.5786 27.7507 28.9078 27.1751 28.6396L6.61411 19.0519C6.61722 19.0441 7.86919 15.927 8.93851 14.0672C10.0092 12.2051 12.1303 9.48695 12.1303 9.48695L12.1378 9.48937L16.2579 0.653753L26.2653 5.3203L22.1213 14.2072Z" fill="#F3F3F3"/>
<path d="M19.1722 14.8384L16.486 13.5858C15.4849 13.119 15.0518 11.9291 15.5186 10.928L19.7444 1.86578C19.9778 1.36524 20.5728 1.14869 21.0733 1.38209L24.6658 3.05729L19.1722 14.8384Z" fill="#F4C33D"/>
<path d="M24.4222 16.0112C24.8066 16.2794 24.9008 16.8084 24.6326 17.1928C23.9623 18.1533 22.6403 18.3888 21.6794 17.7188L16.0378 13.783C15.1318 13.151 14.9098 11.9043 15.5418 10.9984L16.0966 10.2031L24.4222 16.0112Z" fill="#F4C33D"/>
<path d="M22.6808 6.95775C22.9311 7.07445 23.0394 7.37194 22.9227 7.62221C22.806 7.87248 22.5085 7.98076 22.2582 7.86406L20.0491 6.83393C19.7988 6.71722 19.6905 6.41973 19.8072 6.16946C19.9239 5.91919 20.2214 5.81091 20.4717 5.92762L22.6808 6.95775Z" fill="#121212"/>
<path d="M21.6242 9.2235C21.8745 9.3402 21.9827 9.63769 21.866 9.88796C21.7493 10.1382 21.4518 10.2465 21.2016 10.1298L18.9924 9.09967C18.7422 8.98297 18.6339 8.68548 18.7506 8.43521C18.8673 8.18494 19.1648 8.07666 19.4151 8.19336L21.6242 9.2235Z" fill="#121212"/>
<path d="M20.5676 11.4895C20.8178 11.6062 20.9261 11.9037 20.8094 12.154C20.6927 12.4042 20.3952 12.5125 20.1449 12.3958L17.9358 11.3657C17.6855 11.249 17.5773 10.9515 17.694 10.7012C17.8107 10.4509 18.1082 10.3427 18.3584 10.4594L20.5676 11.4895Z" fill="#121212"/>
<path d="M3.8457 17.7607L25.8166 28.0059L26.8735 25.7393L4.90266 15.4941L3.8457 17.7607Z" fill="#F4C33D"/>
</g>
</svg>
