<svg width="32" height="32" viewBox="0 0 32 32" fill="none" xmlns="http://www.w3.org/2000/svg">
<path d="M7.73099 22.3275L9.58245 26.5922L29.2279 21.5493L31.4032 15.1293L25.1547 12.167L7.73099 22.3275Z" fill="#E2E2E2"/>
<path d="M9.53983 24.1363L5.27515 22.2849L10.318 2.6394L16.738 0.464144L19.7003 6.71261L9.53983 24.1363Z" fill="#E2E2E2"/>
<path d="M8.16896 20.3947L11.4698 23.6955L26.5105 12.6157L25.8469 6.01562L19.2488 5.35396L8.16896 20.3947Z" fill="#F3F3F3"/>
<path d="M12.0774 24.9247C12.0774 22.0888 9.77841 19.7898 6.9425 19.7898C4.10659 19.7898 1.80763 22.0888 1.80762 24.9247C1.80762 27.7606 4.10658 30.0596 6.94249 30.0596C9.7784 30.0596 12.0774 27.7606 12.0774 24.9247Z" fill="#F3F3F3"/>
<rect width="10.2697" height="2.80085" transform="matrix(0.707107 0.707107 0.707107 -0.707107 3.6416 20.9635)" fill="#F3F3F3"/>
<rect width="10.2697" height="1.86723" transform="matrix(0.707107 0.707107 0.707107 -0.707107 4.96191 19.6436)" fill="#E21C1C"/>
</svg>
