<svg width="32" height="32" viewBox="0 0 32 32" fill="none" xmlns="http://www.w3.org/2000/svg">
<path d="M14.8716 0.777832C16.1728 0.777832 17.2289 1.83269 17.2289 3.13393V10.8376C17.2289 11.1213 17.4311 11.3648 17.71 11.4167L24.3708 12.657C27.184 13.1806 29.4043 15.3491 29.9941 18.1492L30.9743 22.8016C31.1284 23.5337 30.5697 24.2222 29.8216 24.2224H4.21164C3.58618 24.2223 3.07093 23.7349 3.04854 23.1099C3.00046 21.7513 2.95146 19.4266 3.09571 17.7431C3.29331 15.4371 4.07282 11.9288 4.20438 11.3469C4.2141 11.3039 4.21854 11.2623 4.21854 11.2182L4.21854 3.13393C4.21854 1.83269 5.2734 0.777832 6.57464 0.777832H14.8716Z" fill="#F4C33D"/>
<mask id="mask0_1593_21408" style="mask-type:alpha" maskUnits="userSpaceOnUse" x="3" y="0" width="28" height="25">
<path d="M14.8843 0.777832C16.1855 0.777832 17.2415 1.83269 17.2415 3.13393V10.8399C17.2415 11.1236 17.4438 11.3671 17.7227 11.419L24.3708 12.657C27.184 13.1806 29.4043 15.3491 29.9941 18.1492L30.9743 22.8016C31.1284 23.5337 30.5697 24.2222 29.8216 24.2224H4.21164C3.58618 24.2223 3.07093 23.7349 3.04854 23.1099C3.00046 21.7513 2.95146 19.4266 3.09571 17.7431C3.30207 15.3349 4.14288 11.6155 4.21781 11.2871C4.22127 11.2719 4.23407 11.2636 4.24965 11.2633C4.26815 11.2629 4.28296 11.2478 4.28296 11.2293L4.28296 3.13393C4.28296 1.83269 5.33783 0.777832 6.63906 0.777832H14.8843Z" fill="#F3F3F3"/>
</mask>
<g mask="url(#mask0_1593_21408)">
<path d="M7 21.125C7 22.2296 6.10457 23.125 5 23.125H4.01456C2.90195 23.125 2 22.7117 2 22.2019L2 17.5866C2 17.3317 2.45097 17.125 3.00728 17.125H5C6.10457 17.125 7 18.0204 7 19.125V21.125Z" fill="#ED6E00"/>
<path d="M2.44141 25.2227H30.9999V21.6885H2.44141V25.2227Z" fill="#ED6E00"/>
<path d="M12.4707 7.91016C12.4707 8.46244 12.9184 8.91016 13.4707 8.91016H17.4707C18.023 8.91016 18.4707 8.46244 18.4707 7.91016V6.41016C18.4707 5.85787 18.023 5.41016 17.4707 5.41016H13.4707C12.9184 5.41016 12.4707 5.85787 12.4707 6.41016V7.91016Z" fill="#ED6E00"/>
<path d="M17.7716 16.1084C18.2667 16.3533 18.8665 16.1505 19.1113 15.6554L20.8848 12.0701C21.1297 11.575 20.9269 10.9752 20.4318 10.7303L19.0873 10.0653C18.5923 9.82043 17.9925 10.0232 17.7476 10.5183L15.9741 14.1036C15.7293 14.5987 15.9321 15.1985 16.4271 15.4433L17.7716 16.1084Z" fill="#ED6E00"/>
</g>
<rect x="6.98047" y="26.4722" width="19.1641" height="1.5" fill="#121212"/>
<circle cx="5.75" cy="27.2222" r="3" fill="#121212"/>
<circle cx="5.75" cy="27.2222" r="1.5" fill="#9C9C9C"/>
<circle cx="20.75" cy="27.2222" r="3" fill="#121212"/>
<circle cx="20.75" cy="27.2222" r="1.5" fill="#9C9C9C"/>
<circle cx="13.25" cy="27.2222" r="3" fill="#121212"/>
<circle cx="13.25" cy="27.2222" r="1.5" fill="#9C9C9C"/>
<circle cx="28.25" cy="27.2222" r="3" fill="#121212"/>
<circle cx="28.25" cy="27.2222" r="1.5" fill="#9C9C9C"/>
</svg>
