<svg width="32" height="32" viewBox="0 0 32 32" fill="none" xmlns="http://www.w3.org/2000/svg">
<circle cx="16" cy="16.0021" r="14.998" fill="#F3F3F3"/>
<path d="M11.5303 1.68604C14.5532 0.741415 17.6549 0.803213 20.4707 1.68506L20.6943 2.37158C20.8197 2.75766 20.6818 3.18076 20.3535 3.41943L16.5518 6.18115C16.5256 6.20013 16.4972 6.215 16.4697 6.23096V11.5776C16.4974 11.5937 16.5255 11.6093 16.5518 11.6284L20.3535 14.3901C20.3904 14.4169 20.4241 14.4469 20.4561 14.478L25.1387 12.5728C25.1462 12.5293 25.156 12.4857 25.1699 12.4429L26.6221 7.97412C26.7476 7.5879 27.1086 7.32666 27.5146 7.32666L28.2402 7.32568C30.019 9.83475 30.9607 12.8135 30.998 15.8276L30.4141 16.2524C30.0856 16.4908 29.6399 16.492 29.3115 16.2534L25.5107 13.4907C25.4944 13.4789 25.4802 13.4644 25.4648 13.4517L20.7051 15.3882C20.7007 15.4046 20.6987 15.4217 20.6934 15.438L19.2422 19.9067C19.236 19.9258 19.2261 19.9439 19.2188 19.9624L22.0557 23.4653C22.1081 23.4558 22.1622 23.4507 22.2168 23.4507H26.915C27.3211 23.4508 27.6812 23.7244 27.8066 24.1274L28.0557 24.9253C26.2302 27.3877 23.6681 29.2713 20.6953 30.2505L20.2139 29.8853C19.8854 29.6361 19.7486 29.1946 19.874 28.7915L21.3252 24.1265C21.3305 24.1094 21.3386 24.0933 21.3447 24.0767L18.4834 20.5435C18.4398 20.5497 18.3956 20.5552 18.3506 20.5552H13.6514C13.633 20.5552 13.6149 20.5514 13.5967 20.5503L10.6816 24.1499L12.126 28.7915C12.2512 29.1943 12.1142 29.6351 11.7861 29.8843L11.3115 30.2446C8.46038 29.3087 5.8635 27.511 3.94629 24.9194L4.19238 24.1265C4.31792 23.7234 4.67892 23.4507 5.08496 23.4507H9.7832C9.8632 23.4507 9.94065 23.4637 10.0156 23.4839L12.8115 20.0308C12.792 19.9911 12.7737 19.9497 12.7598 19.9067L11.3086 15.438C11.3034 15.4219 11.3002 15.4054 11.2959 15.3892L6.46094 13.4214L2.68945 16.0317C2.36112 16.2587 1.91627 16.2586 1.58789 16.0317L1.00488 15.6294C1.04058 14.2149 1.27772 12.7812 1.7373 11.3667C2.19122 9.96978 2.8322 8.68593 3.62109 7.53174L4.48828 7.53076C4.89389 7.53104 5.25332 7.77967 5.37891 8.14697L6.83105 12.4028C6.85035 12.4594 6.86106 12.5172 6.86816 12.5747L11.5449 14.478C11.577 14.4467 11.6114 14.4171 11.6484 14.3901L15.4502 11.6284C15.4765 11.6093 15.5046 11.5937 15.5322 11.5776V6.23096C15.5047 6.215 15.4763 6.20013 15.4502 6.18115L11.6494 3.41943C11.321 3.18079 11.1833 2.75773 11.3086 2.37158L11.5303 1.68604Z" fill="#121212"/>
</svg>
