<svg width="32" height="32" viewBox="0 0 32 32" fill="none" xmlns="http://www.w3.org/2000/svg">
<path d="M1 21.2398C1 20.757 1.17251 20.2909 1.52773 19.9639C2.66173 18.92 5.56517 16.6895 9.67188 16.6895C15.0332 16.6895 16.2852 19.2349 19.1562 19.7517C22.0273 20.2685 23.6518 18.9416 26.4062 19.3963C28.9234 19.8118 30.2676 21.443 30.768 22.2024C30.9338 22.4539 31 22.7517 31 23.053V28.001C31 28.2771 30.7761 28.501 30.5 28.501H1.5C1.22386 28.501 1 28.2771 1 28.001V21.2398Z" fill="#0C65DA"/>
<path d="M12.8965 0.975703C12.8965 0.71271 13.1097 0.499512 13.3727 0.499512C13.6357 0.499512 13.8489 0.712709 13.8489 0.975702V16.69H12.8965V0.975703Z" fill="#043666"/>
<mask id="mask0_1593_21303" style="mask-type:alpha" maskUnits="userSpaceOnUse" x="4" y="16" width="24" height="5">
<path d="M4.55256 17.3791C4.38905 17.0625 4.62684 16.6899 4.99244 16.6899H27.0076C27.3732 16.6899 27.6109 17.0625 27.4474 17.3791L25.972 20.2362C25.8887 20.3976 25.7184 20.4995 25.5321 20.4995H6.46785C6.28157 20.4995 6.11128 20.3976 6.02797 20.2362L4.55256 17.3791Z" fill="#ED6E00"/>
</mask>
<g mask="url(#mask0_1593_21303)">
<path d="M4.55256 17.3791C4.38905 17.0625 4.62684 16.6899 4.99244 16.6899H27.0076C27.3732 16.6899 27.6109 17.0625 27.4474 17.3791L25.972 20.2362C25.8887 20.3976 25.7184 20.4995 25.5321 20.4995H6.46785C6.28157 20.4995 6.11128 20.3976 6.02797 20.2362L4.55256 17.3791Z" fill="#ED6E00"/>
<path d="M2.795 18.4518C2.6064 18.244 2.88069 17.9995 3.30242 17.9995H28.6976C29.1193 17.9995 29.3936 18.244 29.205 18.4518L27.5031 20.3268C27.407 20.4326 27.2105 20.4995 26.9956 20.4995H5.00436C4.78948 20.4995 4.59304 20.4326 4.49694 20.3268L2.795 18.4518Z" fill="#F4C33D"/>
</g>
<mask id="mask1_1593_21303" style="mask-type:alpha" maskUnits="userSpaceOnUse" x="13" y="1" width="13" height="15">
<path d="M13.8496 1.45166H17.7227C17.986 1.45166 18.2375 1.56062 18.4175 1.75267L25.0206 8.79595C25.1861 8.97247 25.2782 9.20536 25.2782 9.44732V13.4292C25.2782 13.662 25.1099 13.8607 24.8803 13.8989L13.8496 15.7374V1.45166Z" fill="#ED6E00"/>
</mask>
<g mask="url(#mask1_1593_21303)">
<path d="M17.7227 1.45166C17.9859 1.45166 18.2379 1.56039 18.418 1.75244L25.0205 8.79639C25.1859 8.97288 25.2783 9.20588 25.2783 9.44775V13.4292C25.2783 13.662 25.1095 13.8607 24.8799 13.8989L13.8496 15.7378V15.606C14.1314 15.4503 14.3953 15.1598 14.6348 14.7583L23.9268 13.1304C24.1562 13.0919 24.3242 12.8933 24.3242 12.6606V9.83057C24.3242 9.58518 24.2302 9.34865 24.0605 9.17139L17.8242 2.65674C17.6446 2.46907 17.3955 2.36377 17.1357 2.36377H14.5947C14.366 1.99656 14.1156 1.72939 13.8496 1.58252V1.45166H17.7227Z" fill="#ED6E00"/>
<path d="M17.1357 2.36279C17.3955 2.36279 17.6446 2.46907 17.8242 2.65674L24.0605 9.17139C24.2302 9.34865 24.3242 9.58518 24.3242 9.83057V12.6606C24.3242 12.8933 24.1562 13.0919 23.9268 13.1304L14.6338 14.7593C15.374 13.5191 15.873 11.223 15.873 8.59424C15.873 5.91777 15.3563 3.58606 14.5938 2.36279H17.1357Z" fill="#F4C33D"/>
</g>
<path d="M31 24.2398C31 23.757 30.8275 23.2909 30.4723 22.9639C29.3383 21.92 26.4348 19.6895 22.3281 19.6895C16.9668 19.6895 15.7148 22.2349 12.8438 22.7517C9.97266 23.2685 8.34817 21.9416 5.59375 22.3963C3.07662 22.8118 1.7324 24.443 1.23199 25.2024C1.0662 25.4539 1 25.7517 1 26.053V29.001C1 29.2771 1.22386 29.501 1.5 29.501H30.5C30.7761 29.501 31 29.2771 31 29.001V24.2398Z" fill="#E0ECFF"/>
</svg>
