<svg width="32" height="32" viewBox="0 0 32 32" fill="none" xmlns="http://www.w3.org/2000/svg">
<path d="M5.39365 26.6065C4.90549 26.1184 4.90549 25.3269 5.39365 24.8388L24.8391 5.39334C25.3272 4.90518 26.1187 4.90518 26.6069 5.39334C27.095 5.88149 27.095 6.67295 26.6069 7.1611L7.16142 26.6065C6.67326 27.0947 5.8818 27.0947 5.39365 26.6065Z" fill="#9C9C9C"/>
<path d="M7.30263 15.0807C6.834 14.6121 6.0742 14.6121 5.60557 15.0807L5.53486 15.1514C5.06623 15.62 5.06623 16.3798 5.53486 16.8485L15.1515 26.4651C15.6201 26.9338 16.3799 26.9338 16.8486 26.4651L16.9193 26.3944C17.3879 25.9258 17.3879 25.166 16.9193 24.6974L7.30263 15.0807Z" fill="#4D4D4D"/>
<path d="M20.3837 1.99922C19.9151 1.53059 19.1553 1.53059 18.6866 1.99922L18.6159 2.06993C18.1473 2.53856 18.1473 3.29836 18.6159 3.76699L28.2326 13.3836C28.7012 13.8523 29.461 13.8523 29.9296 13.3836L30.0003 13.3129C30.469 12.8443 30.469 12.0845 30.0003 11.6159L20.3837 1.99922Z" fill="#4D4D4D"/>
<path d="M5.53505 16.8485C5.06642 16.3799 4.30662 16.3799 3.838 16.8485L3.76728 16.9192C3.29866 17.3879 3.29866 18.1477 3.76728 18.6163L13.3839 28.2329C13.8526 28.7016 14.6124 28.7016 15.081 28.2329L15.1517 28.1622C15.6203 27.6936 15.6203 26.9338 15.1517 26.4652L5.53505 16.8485Z" fill="#9C9C9C"/>
<path d="M18.6161 3.76699C18.1475 3.29836 17.3877 3.29836 16.919 3.76699L16.8483 3.8377C16.3797 4.30632 16.3797 5.06612 16.8483 5.53475L26.465 15.1514C26.9336 15.62 27.6934 15.62 28.162 15.1514L28.2328 15.0807C28.7014 14.6121 28.7014 13.8523 28.2328 13.3836L18.6161 3.76699Z" fill="#9C9C9C"/>
<path d="M3.7665 18.6162C3.29787 18.1476 2.53807 18.1476 2.06944 18.6162L1.99873 18.6869C1.5301 19.1556 1.5301 19.9154 1.99873 20.384L11.6154 30.0006C12.084 30.4693 12.8438 30.4693 13.3124 30.0006L13.3831 29.9299C13.8518 29.4613 13.8518 28.7015 13.3831 28.2329L3.7665 18.6162Z" fill="#4D4D4D"/>
<path d="M16.8485 5.53481C16.3799 5.06618 15.6201 5.06618 15.1515 5.53481L15.0808 5.60552C14.6121 6.07415 14.6121 6.83395 15.0808 7.30257L24.6974 16.9192C25.166 17.3879 25.9258 17.3879 26.3945 16.9192L26.4652 16.8485C26.9338 16.3799 26.9338 15.6201 26.4652 15.1515L16.8485 5.53481Z" fill="#4D4D4D"/>
</svg>
