<svg width="32" height="32" viewBox="0 0 32 32" fill="none" xmlns="http://www.w3.org/2000/svg">
<ellipse cx="5.68555" cy="14.8755" rx="3" ry="3" transform="rotate(45 5.68555 14.8755)" fill="#121212"/>
<ellipse cx="5.68555" cy="14.8752" rx="1.5" ry="1.5" transform="rotate(45 5.68555 14.8752)" fill="#9C9C9C"/>
<ellipse cx="17.0254" cy="26.1628" rx="3" ry="3" transform="rotate(45 17.0254 26.1628)" fill="#121212"/>
<ellipse cx="17.0254" cy="26.1627" rx="1.5" ry="1.5" transform="rotate(45 17.0254 26.1627)" fill="#9C9C9C"/>
<mask id="path-5-inside-1_1593_21110" fill="white">
<path d="M3.94392 3.88909C6.0918 1.7412 9.57421 1.7412 11.7221 3.88909L27.9856 20.1525C30.1334 22.3004 30.1334 25.7828 27.9856 27.9307C25.8377 30.0786 22.3553 30.0786 20.2074 27.9307L3.94392 11.6673C1.79604 9.51938 1.79604 6.03697 3.94392 3.88909Z"/>
</mask>
<path d="M3.94392 3.88909C6.0918 1.7412 9.57421 1.7412 11.7221 3.88909L27.9856 20.1525C30.1334 22.3004 30.1334 25.7828 27.9856 27.9307C25.8377 30.0786 22.3553 30.0786 20.2074 27.9307L3.94392 11.6673C1.79604 9.51938 1.79604 6.03697 3.94392 3.88909Z" fill="#F4C33D"/>
<path d="M7.83301 0L31.8746 24.0416L7.83301 0ZM28.4098 29.2035C26.0276 31.5857 22.1653 31.5857 19.7831 29.2035L3.94392 13.3643C1.32741 10.7478 1.32741 6.5056 3.94392 3.88909C2.26467 5.56834 2.64456 8.67085 4.79245 10.8187L21.0559 27.0822C22.7352 28.7614 25.4578 28.7614 27.137 27.0822L28.4098 29.2035ZM0.0548334 7.77817L7.83301 0L0.0548334 7.77817ZM28.4098 20.5768C30.792 22.959 30.792 26.8213 28.4098 29.2035L28.4098 29.2035C26.0276 31.5857 22.1653 31.5857 19.7831 29.2035L21.0559 27.0822C22.7352 28.7614 25.4578 28.7614 27.137 27.0822C29.2849 24.9343 29.6648 21.8318 27.9856 20.1525L28.4098 20.5768Z" fill="#E6A008" mask="url(#path-5-inside-1_1593_21110)"/>
</svg>
