<svg width="32" height="32" viewBox="0 0 32 32" fill="none" xmlns="http://www.w3.org/2000/svg">
<mask id="mask0_1593_21212" style="mask-type:alpha" maskUnits="userSpaceOnUse" x="2" y="10" width="10" height="16">
<path d="M2.37685 13.7194C2.02588 11.8711 3.44294 10.1597 5.32418 10.1597H8.54054C10.3269 10.1597 11.7175 11.7111 11.5226 13.4868L10.2252 25.3125L5.34696 21.8575C4.29092 21.1096 3.56598 19.9814 3.32456 18.71L2.37685 13.7194Z" fill="#E21C1C"/>
</mask>
<g mask="url(#mask0_1593_21212)">
<path d="M2.37685 13.7194C2.02588 11.8711 3.44294 10.1597 5.32418 10.1597H8.54054C10.3269 10.1597 11.7175 11.7111 11.5226 13.4868L10.2252 25.3125L5.34696 21.8575C4.29092 21.1096 3.56598 19.9814 3.32456 18.71L2.37685 13.7194Z" fill="#E21C1C"/>
<path d="M2.8125 10.3125L6.03125 9.90625L5.54688 21.9219C5.54688 21.9219 5.09375 13.1719 4.65625 11.6406C4.21875 10.1094 2.8125 10.3125 2.8125 10.3125Z" fill="#C80F0F"/>
</g>
<path d="M5.66211 6.5C5.66211 3.46244 8.12454 1 11.1621 1H22.7994C25.837 1 28.2994 3.46243 28.2994 6.5V13L27.5765 19.7459C27.1953 23.3028 24.1936 26 20.6164 26H13.6621C9.24383 26 5.66211 22.4183 5.66211 18V6.5Z" fill="#E21C1C"/>
<path d="M8.49219 24.0312H25.4702V28.9999C25.4702 30.1044 24.5748 30.9999 23.4702 30.9999H10.4922C9.38762 30.9999 8.49219 30.1044 8.49219 28.9999V24.0312Z" fill="#C80F0F"/>
<path d="M11.9814 26.5C11.9814 25.9477 12.4292 25.5 12.9814 25.5H20.9814C21.5337 25.5 21.9814 25.9477 21.9814 26.5V28C21.9814 28.5523 21.5337 29 20.9814 29H12.9814C12.4292 29 11.9814 28.5523 11.9814 28V26.5Z" fill="#EEB926"/>
</svg>
