<svg width="32" height="32" viewBox="0 0 32 32" fill="none" xmlns="http://www.w3.org/2000/svg">
<mask id="mask0_1593_21514" style="mask-type:alpha" maskUnits="userSpaceOnUse" x="1" y="2" width="30" height="24">
<path d="M14.3155 3.1321C15.1021 1.90291 16.8979 1.90291 17.6845 3.1321L30.03 22.4219C30.882 23.7531 29.926 25.5 28.3455 25.5H3.65453C2.07402 25.5 1.11801 23.7531 1.96999 22.4219L14.3155 3.1321Z" fill="#8FD821"/>
</mask>
<g mask="url(#mask0_1593_21514)">
<path d="M14.3155 3.1321C15.1021 1.90291 16.8979 1.90291 17.6845 3.1321L30.03 22.4219C30.882 23.7531 29.926 25.5 28.3455 25.5H3.65453C2.07402 25.5 1.11801 23.7531 1.96999 22.4219L14.3155 3.1321Z" fill="#88C926"/>
<path d="M19.6494 -0.84375C22.7943 -0.843603 25.3438 1.56981 25.3438 4.54688C25.3438 7.52394 22.7943 9.93735 19.6494 9.9375C18.1017 9.9375 16.6988 9.35222 15.6726 8.40351C15.4577 8.20488 15.1205 8.20063 14.8909 8.38204C14.2129 8.91775 13.3764 9.19522 12.5049 9.09961C10.5751 8.88763 9.20642 6.92898 9.44824 4.72461C9.6902 2.52032 11.451 0.904663 13.3809 1.11621C13.7421 1.15584 14.0836 1.25708 14.3985 1.40953C14.65 1.53126 14.9627 1.47404 15.1392 1.25745C16.1804 -0.0201784 17.813 -0.84375 19.6494 -0.84375Z" fill="#639F08"/>
</g>
<mask id="mask1_1593_21514" style="mask-type:alpha" maskUnits="userSpaceOnUse" x="12" y="16" width="18" height="14">
<path d="M19.3725 17.7785C20.1702 16.6618 21.8298 16.6618 22.6275 17.7785L28.7411 26.3375C29.6866 27.6613 28.7404 29.5 27.1136 29.5H14.8864C13.2596 29.5 12.3134 27.6613 13.2589 26.3375L19.3725 17.7785Z" fill="#B7EE64"/>
</mask>
<g mask="url(#mask1_1593_21514)">
<path d="M19.3725 17.7785C20.1702 16.6618 21.8298 16.6618 22.6275 17.7785L28.7411 26.3375C29.6866 27.6613 28.7404 29.5 27.1136 29.5H14.8864C13.2596 29.5 12.3134 27.6613 13.2589 26.3375L19.3725 17.7785Z" fill="#BAE876"/>
<path d="M17.5645 11.1719C19.065 11.1719 20.4217 11.7856 21.3989 12.7751C21.5507 12.9288 21.7785 12.9819 21.9843 12.9164C22.389 12.7877 22.8203 12.7188 23.2676 12.7188C25.5975 12.7188 27.4863 14.6075 27.4863 16.9375C27.4863 19.2675 25.5975 21.1562 23.2676 21.1562C22.625 21.1562 22.0163 21.0118 21.4713 20.7546C21.2757 20.6623 21.0426 20.6852 20.8719 20.8181C19.9587 21.5291 18.8114 21.9531 17.5645 21.9531C14.5873 21.9531 12.1738 19.5397 12.1738 16.5625C12.1738 13.5853 14.5873 11.1719 17.5645 11.1719Z" fill="#639F08"/>
</g>
</svg>
