<svg width="32" height="32" viewBox="0 0 32 32" fill="none" xmlns="http://www.w3.org/2000/svg">
<mask id="mask0_1593_21162" style="mask-type:alpha" maskUnits="userSpaceOnUse" x="1" y="1" width="30" height="30">
<circle cx="16" cy="16" r="15" fill="#ED6E00"/>
</mask>
<g mask="url(#mask0_1593_21162)">
<circle cx="16" cy="16" r="15" fill="#ED6E00"/>
<path d="M48.3438 16C48.3438 8.49238 42.2576 2.40625 34.75 2.40625C27.2424 2.40625 21.1562 8.49238 21.1562 16C21.1563 23.5076 27.2424 29.5938 34.75 29.5938V31C26.4657 31 19.75 24.2843 19.75 16C19.75 7.71573 26.4657 1 34.75 1C43.0343 1 49.75 7.71573 49.75 16C49.75 24.2843 43.0343 31 34.75 31V29.5938C42.2576 29.5937 48.3438 23.5076 48.3438 16Z" fill="#121212"/>
<path d="M10.8438 16C10.8438 8.49238 4.75762 2.40625 -2.75 2.40625C-10.2576 2.40625 -16.3438 8.49238 -16.3438 16C-16.3437 23.5076 -10.2576 29.5938 -2.75 29.5938V31C-11.0343 31 -17.75 24.2843 -17.75 16C-17.75 7.71573 -11.0343 1 -2.75 1C5.53427 1 12.25 7.71573 12.25 16C12.25 24.2843 5.53427 31 -2.75 31V29.5938C4.75762 29.5937 10.8438 23.5076 10.8438 16Z" fill="#121212"/>
<path d="M31 15.2969V16.7031H1V15.2969H31Z" fill="#121212"/>
<path d="M15.2969 1H16.7031V31H15.2969L15.2969 1Z" fill="#121212"/>
</g>
</svg>
