<svg width="32" height="32" viewBox="0 0 32 32" fill="none" xmlns="http://www.w3.org/2000/svg">
<path d="M3.74609 3.3416C3.74609 2.82101 4.16812 2.39899 4.68871 2.39899H27.3115C27.8321 2.39899 28.2541 2.82101 28.2541 3.3416V8.05468H3.74609V3.3416Z" fill="#F4C33D"/>
<path d="M8.93066 8.05469H23.0699V25.0218H8.93066V8.05469Z" fill="#121212"/>
<mask id="mask0_1593_21560" style="mask-type:alpha" maskUnits="userSpaceOnUse" x="16" y="8" width="15" height="22">
<path d="M16.9424 8.05469H27.9107C28.6397 8.05469 29.2492 8.60888 29.3183 9.33456L30.9955 26.9459C31.0436 27.4504 30.6841 27.9026 30.1818 27.9696L18.0096 29.5925C17.4445 29.6679 16.9424 29.2283 16.9424 28.6582V8.05469Z" fill="#E21C1C"/>
</mask>
<g mask="url(#mask0_1593_21560)">
<path d="M16.9424 8.05469H27.9107C28.6397 8.05469 29.2492 8.60888 29.3183 9.33456L30.9955 26.9459C31.0436 27.4504 30.6841 27.9026 30.1818 27.9696L18.0096 29.5925C17.4445 29.6679 16.9424 29.2283 16.9424 28.6582V8.05469Z" fill="#E21C1C"/>
<path d="M16.9424 8.05469H25.9286L27.3112 28.7103L16.9424 30.6775V8.05469Z" fill="#121212"/>
</g>
<mask id="mask1_1593_21560" style="mask-type:alpha" maskUnits="userSpaceOnUse" x="1" y="8" width="15" height="22">
<path d="M2.68157 9.33456C2.75069 8.60888 3.36017 8.05469 4.08913 8.05469H15.0575V28.6582C15.0575 29.2283 14.5554 29.6679 13.9903 29.5925L1.81809 27.9696C1.31574 27.9026 0.956255 27.4504 1.0043 26.9459L2.68157 9.33456Z" fill="#E21C1C"/>
</mask>
<g mask="url(#mask1_1593_21560)">
<path d="M2.68157 9.33456C2.75069 8.60888 3.36017 8.05469 4.08913 8.05469H15.0575V28.6582C15.0575 29.2283 14.5554 29.6679 13.9903 29.5925L1.81809 27.9696C1.31574 27.9026 0.956255 27.4504 1.0043 26.9459L2.68157 9.33456Z" fill="#E21C1C"/>
<path d="M6.07098 8.05469H15.0572V30.6775L4.68848 28.7103L6.07098 8.05469Z" fill="#121212"/>
</g>
</svg>
