<svg width="32" height="32" viewBox="0 0 32 32" fill="none" xmlns="http://www.w3.org/2000/svg">
<circle cx="6.99902" cy="20.1431" r="6.25" stroke="#121212" stroke-width="1.5"/>
<circle cx="25.002" cy="20.1431" r="6.25" stroke="#121212" stroke-width="1.5"/>
<path d="M23.7227 7.36456L22.5654 9.24933C22.571 9.26062 22.5788 9.27098 22.584 9.28253L26.917 19.0208C27.2031 19.6637 26.7185 20.3818 25.998 20.3821H6.00391L5.87109 20.3734C5.22533 20.2918 4.8168 19.6234 5.08496 19.0208L7.41406 9.28253C7.55296 8.97078 7.84756 8.75533 8.18652 8.70636L8.33398 8.69562H21.1572L22.4316 6.61749L23.7227 7.36456ZM16.6348 18.9212H25.2354L21.6182 10.7943L16.6348 18.9212ZM6.7666 18.9212H14.8848L20.2607 10.1566H8.66309L6.7666 18.9212Z" fill="#F4C33D"/>
<path d="M24.0467 4.99357C24.6491 4.9075 25.1881 5.37497 25.1881 5.98352V6.75207C25.1881 7.30435 24.7404 7.75207 24.1881 7.75207H19.3711C18.8188 7.75207 18.3711 7.30435 18.3711 6.75207V6.67165C18.3711 6.174 18.737 5.75208 19.2297 5.68171L24.0467 4.99357Z" fill="#5C3D0D"/>
<path d="M10.2529 4.45007V5.91101H8.79199V10.0643H7.33105V5.45007C7.33105 4.89779 7.77877 4.45007 8.33105 4.45007H10.2529Z" fill="#F4C33D"/>
<path d="M13.1242 4.00024C13.6764 4.00024 14.1242 4.44796 14.1242 5.00024V5.43488C14.1242 5.98716 13.6764 6.43488 13.1242 6.43488H10.2549C9.7026 6.43488 9.25488 5.98716 9.25488 5.43488V5.00024C9.25488 4.44796 9.7026 4.00024 10.2549 4.00024H13.1242Z" fill="#5C3D0D"/>
<circle cx="15.6915" cy="19.621" r="2.43464" fill="#ED6E00"/>
<path d="M15.7734 19.0728C16.1048 19.0728 16.373 19.342 16.373 19.6733V23.1382C16.374 23.1517 16.377 23.1654 16.377 23.1792V23.3423C16.377 23.6736 16.1086 23.9418 15.7773 23.9419H13.5684C13.2371 23.9418 12.9688 23.6736 12.9688 23.3423V23.1792C12.9688 22.8479 13.2371 22.5788 13.5684 22.5786H15.0098V19.6733C15.0098 19.342 15.279 19.0728 15.6104 19.0728H15.7734Z" fill="#5C3D0D"/>
</svg>
