<svg width="32" height="32" viewBox="0 0 32 32" fill="none" xmlns="http://www.w3.org/2000/svg">
<path d="M26.5503 10.606C25.1719 9.45696 23.1274 9.6224 21.9517 10.9781L19.6478 13.6344C18.7582 14.6602 18.2072 15.9357 18.0701 17.2866L17.6816 21.1146C17.5377 22.5324 18.3216 23.882 19.6244 24.4594L21.8797 25.459C23.3369 26.1049 25.0476 25.615 25.942 24.2956L30.4172 17.694C31.3674 16.2923 31.1003 14.3986 29.7996 13.3144L26.5503 10.606Z" fill="#F4C33D"/>
<path d="M25.2698 18.1102C25.2698 18.8648 24.658 19.4765 23.9034 19.4765C23.1488 19.4765 22.5371 18.8648 22.5371 18.1102C22.5371 17.3556 23.1488 16.7439 23.9034 16.7439C24.658 16.7439 25.2698 17.3556 25.2698 18.1102Z" fill="#606060"/>
<path d="M24.8149 18.1099C24.8149 18.6129 24.4071 19.0207 23.904 19.0207C23.401 19.0207 22.9932 18.6129 22.9932 18.1099C22.9932 17.6068 23.401 17.199 23.904 17.199C24.4071 17.199 24.8149 17.6068 24.8149 18.1099Z" fill="#C5C5C5"/>
<path d="M23.6768 17.043H24.1322V19.1778H23.6768V17.043Z" fill="#606060"/>
<path d="M3.32763 6.25972C3.02949 4.16667 4.75184 2.33846 6.85893 2.51135L15.5584 3.39062C17.2679 3.53089 18.4478 4.37856 18.4478 6.09375L18.5838 9.17138C18.5838 10.7656 16.827 11.1399 15.7847 11.3316L7.72403 12.8148C5.88298 13.1535 4.12992 11.8922 3.86594 10.039L3.32763 6.25972Z" fill="#55CEB1"/>
<path d="M11.5315 7.35686C11.5315 8.11146 10.9197 8.72318 10.1651 8.72318C9.41055 8.72318 8.79883 8.11146 8.79883 7.35686C8.79883 6.60226 9.41055 5.99054 10.1651 5.99054C10.9197 5.99054 11.5315 6.60226 11.5315 7.35686Z" fill="#606060"/>
<path d="M11.0757 7.3565C11.0757 7.85956 10.6679 8.26738 10.1648 8.26738C9.66172 8.26738 9.25391 7.85956 9.25391 7.3565C9.25391 6.85343 9.66172 6.44562 10.1648 6.44562C10.6679 6.44562 11.0757 6.85343 11.0757 7.3565Z" fill="#C5C5C5"/>
<path d="M9.9375 6.28955H10.3929V8.42443H9.9375V6.28955Z" fill="#606060"/>
<path d="M5.85498 16.7398C7.55099 14.9877 10.4966 15.6211 11.3225 17.9155L12.2771 20.5678C12.5297 21.2694 12.8994 21.923 13.3706 22.5008L16.5015 26.3398C17.5274 27.5978 16.8814 29.4956 15.301 29.8665L13.8831 30.1992C13.0946 30.3842 12.2655 30.2723 11.5542 29.8848L8.49659 28.2191C6.97824 27.392 5.84582 26.0012 5.34356 24.3467L4.27101 20.8135C3.92338 19.6684 4.22401 18.4248 5.05632 17.565L5.85498 16.7398Z" fill="#F27FAB"/>
<path d="M11.0266 23.7972C11.0266 24.5518 10.4149 25.1636 9.66027 25.1636C8.90567 25.1636 8.29395 24.5518 8.29395 23.7972C8.29395 23.0426 8.90567 22.4309 9.66027 22.4309C10.4149 22.4309 11.0266 23.0426 11.0266 23.7972Z" fill="#606060"/>
<path d="M10.5708 23.7969C10.5708 24.2999 10.163 24.7077 9.6599 24.7077C9.15684 24.7077 8.74902 24.2999 8.74902 23.7969C8.74902 23.2938 9.15684 22.886 9.6599 22.886C10.163 22.886 10.5708 23.2938 10.5708 23.7969Z" fill="#C5C5C5"/>
<path d="M9.43262 22.73H9.88806V24.8649H9.43262V22.73Z" fill="#606060"/>
</svg>
