<svg width="32" height="32" viewBox="0 0 32 32" fill="none" xmlns="http://www.w3.org/2000/svg">
<path d="M6.30762 29L6.30762 5.30769H27.9999C29.1045 5.30769 29.9999 6.20312 29.9999 7.30769V27C29.9999 28.1046 29.1045 29 27.9999 29H6.30762Z" fill="#F391B6"/>
<path d="M6.30762 27.9231L6.30762 5.30771H27.9999C29.1045 5.30771 29.9999 6.20314 29.9999 7.30771V25.9231C29.9999 27.0277 29.1045 27.9231 27.9999 27.9231H6.30762Z" fill="#FFB3D0"/>
<path d="M6.30762 27.9231L6.30762 5.30771H14.3076L14.3076 27.9231H6.30762Z" fill="#F391B6"/>
<path d="M6.30762 27.9231L6.30762 5.30771H12.3076L12.3076 27.9231H6.30762Z" fill="#E06393"/>
<path d="M2 5.30756L2.00586 5.08588C2.12128 2.8099 4.00299 0.999992 6.30769 0.999952C8.61243 0.999952 10.4941 2.80988 10.6095 5.08588L10.6154 5.30756L10.6154 24.6923H2L2 5.30756Z" fill="#FFB3D0"/>
<path d="M6.30769 20.3846C8.68677 20.3846 10.6154 22.3132 10.6154 24.6923C10.6154 27.0714 8.68677 29 6.30769 29C3.92862 29 2 27.0714 2 24.6923C2 22.3132 3.92862 20.3846 6.30769 20.3846Z" fill="#F391B6"/>
<path d="M6.30792 21.4616C8.09222 21.4616 9.53869 22.908 9.53869 24.6923C9.53869 26.4766 8.09222 27.9231 6.30792 27.9231C4.52361 27.9231 3.07715 26.4766 3.07715 24.6923C3.07715 22.908 4.52361 21.4616 6.30792 21.4616Z" fill="#E06393"/>
</svg>
