<svg width="32" height="32" viewBox="0 0 32 32" fill="none" xmlns="http://www.w3.org/2000/svg">
<mask id="mask0_1593_21295" style="mask-type:alpha" maskUnits="userSpaceOnUse" x="1" y="6" width="30" height="24">
<rect x="1" y="6.99878" width="30" height="23" fill="#D9D9D9"/>
</mask>
<g mask="url(#mask0_1593_21295)">
<path d="M1 15.2058C1 14.7516 1.14214 14.3101 1.44027 13.9774C2.50675 12.7874 5.45495 9.99976 9.67188 9.99976C15.0332 9.99976 15.8535 12.8873 18.7246 13.4998C21.5957 14.1123 23.0004 12.9799 25.7998 13.1279C28.1037 13.2497 29.6948 14.342 30.4662 15.0151C30.8308 15.3332 31 15.8142 31 16.3082V23.4812C31 23.7676 30.7761 23.9998 30.5 23.9998H1.5C1.22386 23.9998 1 23.7676 1 23.4812V15.2058Z" fill="#0C65DA"/>
<path d="M1 19.9436C1 19.4307 1.1813 18.9379 1.54017 18.5842C2.89503 17.2489 6.65119 13.9998 11.1208 13.9998C16.7464 13.9998 17.6071 16.681 20.6197 17.2498C23.6323 17.8185 25.1167 16.6382 28.0435 16.9044C30.8791 17.1624 32.5229 18.8231 33.1733 19.6473C33.4028 19.9381 33.5 20.3081 33.5 20.6836V26.4823C33.5 26.7681 33.2761 26.9998 33 26.9998H1.5C1.22386 26.9998 1 26.7681 1 26.4823V19.9436Z" fill="#5D92F4"/>
</g>
<path d="M20.25 0.000976562C20.5455 0.000976585 20.8383 0.058802 21.1113 0.171875C21.3843 0.284947 21.6319 0.451254 21.8408 0.660156C22.0497 0.869058 22.216 1.11671 22.3291 1.38965C22.4422 1.66263 22.5 1.9555 22.5 2.25098V21.626H21V14.751H12V21.626H10.5V2.25098C10.5 2.15251 10.481 2.05484 10.4434 1.96387C10.4057 1.87287 10.3499 1.79035 10.2803 1.7207C10.2106 1.65106 10.1281 1.59531 10.0371 1.55762C9.94614 1.51995 9.84846 1.50098 9.75 1.50098C9.65154 1.50098 9.55386 1.51995 9.46289 1.55762C9.3719 1.59531 9.28937 1.65106 9.21973 1.7207C9.15008 1.79035 9.09433 1.87287 9.05664 1.96387C9.01897 2.05484 9 2.15251 9 2.25098C9 2.66519 8.66421 3.00098 8.25 3.00098C7.83579 3.00098 7.5 2.66519 7.5 2.25098C7.5 1.9555 7.55783 1.66263 7.6709 1.38965C7.78397 1.11671 7.95028 0.869058 8.15918 0.660156C8.36808 0.451254 8.61574 0.284947 8.88867 0.171875C9.16165 0.0588019 9.45453 0.000976575 9.75 0.000976562C10.0455 0.000976585 10.3383 0.058802 10.6113 0.171875C10.8843 0.284947 11.1319 0.451254 11.3408 0.660156C11.5497 0.869058 11.716 1.11671 11.8291 1.38965C11.9422 1.66263 12 1.9555 12 2.25098V6.75098H21V2.25098C21 2.15251 20.981 2.05484 20.9434 1.96387C20.9057 1.87287 20.8499 1.79035 20.7803 1.7207C20.7106 1.65106 20.6281 1.59531 20.5371 1.55762C20.4461 1.51995 20.3485 1.50098 20.25 1.50098C20.1515 1.50098 20.0539 1.51995 19.9629 1.55762C19.8719 1.59531 19.7894 1.65106 19.7197 1.7207C19.6501 1.79035 19.5943 1.87287 19.5566 1.96387C19.519 2.05484 19.5 2.15251 19.5 2.25098C19.5 2.66519 19.1642 3.00098 18.75 3.00098C18.3358 3.00098 18 2.66519 18 2.25098C18 1.9555 18.0578 1.66263 18.1709 1.38965C18.284 1.11671 18.4503 0.869058 18.6592 0.660156C18.8681 0.451254 19.1157 0.284947 19.3887 0.171875C19.6617 0.0588019 19.9545 0.000976575 20.25 0.000976562ZM12 13.251H21V8.25098H12V13.251Z" fill="#043666"/>
<path d="M1 22.6229C1 22.1324 1.17251 21.6589 1.52773 21.3267C2.66173 20.2661 5.56517 18 9.67188 18C15.0332 18 16.2852 20.5861 19.1562 21.1111C22.0273 21.6361 23.6518 20.288 26.4062 20.75C28.9234 21.1722 30.2676 22.8294 30.768 23.6009C30.9338 23.8565 31 24.159 31 24.4651V29.492C31 29.7726 30.7761 30 30.5 30H1.5C1.22386 30 1 29.7726 1 29.492V22.6229Z" fill="#E0ECFF"/>
</svg>
