<svg width="32" height="32" viewBox="0 0 32 32" fill="none" xmlns="http://www.w3.org/2000/svg">
<path d="M6.3 4.5C5.85817 4.5 5.5 4.85817 5.5 5.3V8.5H26.5V5.3C26.5 4.85817 26.1418 4.5 25.7 4.5H6.3ZM28.5 10.5H3.5V4.5C3.5 3.46435 4.28722 2.613 5.2959 2.51074L5.5 2.5H26.5C27.6046 2.5 28.5 3.39543 28.5 4.5V10.5Z" fill="#E2E2E2"/>
<path d="M7.5 2.6C7.5 2.26863 7.76863 2 8.1 2H23.9C24.2314 2 24.5 2.26863 24.5 2.6V4.4C24.5 4.73137 24.2314 5 23.9 5H8.1C7.76863 5 7.5 4.73137 7.5 4.4V2.6Z" fill="#E06393"/>
<path d="M1 10.5C1 9.39543 1.89543 8.5 3 8.5H29C30.1046 8.5 31 9.39543 31 10.5V26.5C31 27.6046 30.1046 28.5 29 28.5H3C1.89543 28.5 1 27.6046 1 26.5V10.5Z" fill="#FFECF3"/>
<path d="M1 11.5H31V26.5C31 27.6046 30.1046 28.5 29 28.5H3C1.89543 28.5 1 27.6046 1 26.5V11.5Z" fill="#FFB3D0"/>
<path d="M14.5 20C14.5 23.3137 11.8137 26 8.5 26C5.18629 26 2.5 23.3137 2.5 20C2.5 16.6863 5.18629 14 8.5 14C11.8137 14 14.5 16.6863 14.5 20Z" fill="#E06393"/>
<path d="M13.5 20C13.5 22.7614 11.2614 25 8.5 25C5.73858 25 3.5 22.7614 3.5 20C3.5 17.2386 5.73858 15 8.5 15C11.2614 15 13.5 17.2386 13.5 20Z" fill="#FFB3D0"/>
<path d="M10.5 20C10.5 21.1046 9.60457 22 8.5 22C7.39543 22 6.5 21.1046 6.5 20C6.5 18.8954 7.39543 18 8.5 18C9.60457 18 10.5 18.8954 10.5 20Z" fill="#E06393"/>
<path d="M29.5 20C29.5 23.3137 26.8137 26 23.5 26C20.1863 26 17.5 23.3137 17.5 20C17.5 16.6863 20.1863 14 23.5 14C26.8137 14 29.5 16.6863 29.5 20Z" fill="#E06393"/>
<path d="M28.5 20C28.5 22.7614 26.2614 25 23.5 25C20.7386 25 18.5 22.7614 18.5 20C18.5 17.2386 20.7386 15 23.5 15C26.2614 15 28.5 17.2386 28.5 20Z" fill="#FFB3D0"/>
<path d="M25.5 20C25.5 21.1046 24.6046 22 23.5 22C22.3954 22 21.5 21.1046 21.5 20C21.5 18.8954 22.3954 18 23.5 18C24.6046 18 25.5 18.8954 25.5 20Z" fill="#E06393"/>
<path d="M7 7.6C7 7.26863 7.26863 7 7.6 7H9.4C9.73137 7 10 7.26863 10 7.6V8.5H7V7.6Z" fill="#FFB3D0"/>
<path d="M11 7.6C11 7.26863 11.2686 7 11.6 7H13.4C13.7314 7 14 7.26863 14 7.6V8.5H11V7.6Z" fill="#FFB3D0"/>
<path d="M22 7.6C22 7.26863 22.2686 7 22.6 7H24.4C24.7314 7 25 7.26863 25 7.6V8.5H22V7.6Z" fill="#FFB3D0"/>
</svg>
