<svg width="32" height="32" viewBox="0 0 32 32" fill="none" xmlns="http://www.w3.org/2000/svg">
<mask id="mask0_1593_21543" style="mask-type:alpha" maskUnits="userSpaceOnUse" x="8" y="1" width="23" height="24">
<circle cx="19.5" cy="12.6495" r="11.5" fill="#ED6E00"/>
</mask>
<g mask="url(#mask0_1593_21543)">
<circle cx="19.5" cy="12.6495" r="11.5" fill="#4D4D4D"/>
<circle cx="19.5" cy="12.6495" r="6.82812" fill="#F4C33D"/>
<circle cx="19.5" cy="-3.5224" r="6.82812" fill="#F4C33D"/>
<circle cx="19.5" cy="28.8214" r="6.82812" fill="#F4C33D"/>
</g>
<path d="M16.625 18.3995H22.375L21.6562 22.712H17.3438L16.625 18.3995Z" fill="#F4C33D"/>
<path d="M16.625 6.89948H22.375L21.6562 2.58698H17.3438L16.625 6.89948Z" fill="#F4C33D"/>
<path d="M5.53066 11.6863C5.42527 10.956 5.86839 10.2581 6.5741 10.0428C7.45055 9.77545 8.35909 10.3523 8.48998 11.2592L9.03813 15.0574C9.10494 15.5203 9.23922 15.9709 9.4367 16.3948L11.309 20.4144C11.6934 21.2395 11.259 22.2139 10.3883 22.4795C9.67421 22.6973 8.90872 22.356 8.59349 21.6793L6.5564 17.306C6.35013 16.8632 6.20986 16.3925 6.14008 15.909L5.53066 11.6863Z" fill="#F7E0BF"/>
<rect x="11.1426" y="15.5403" width="3.02521" height="10.7395" rx="1.51261" transform="rotate(-1.96497 11.1426 15.5403)" fill="#F7E0BF"/>
<path d="M6.77445 22.1137L8.35049 18.0196L9.09802 17.107L11.7383 21.6106L13.3799 26.164L8.82639 27.8056L6.77445 22.1137Z" fill="#F7E0BF"/>
<rect x="0.795898" y="23.2647" width="6.23411" height="7.94173" rx="1" transform="rotate(-19.8244 0.795898 23.2647)" fill="#0C65DA"/>
</svg>
