<svg width="32" height="32" viewBox="0 0 32 32" fill="none" xmlns="http://www.w3.org/2000/svg">
<path d="M11.2301 15.3182C12.2747 15.3182 13.1224 16.165 13.1224 17.2095L13.1224 19.468C13.1224 19.6958 13.2848 19.8912 13.5087 19.9329L18.8556 20.9285C21.1139 21.3489 22.8962 23.0896 23.3697 25.3374L24.1565 29.0721C24.2803 29.6598 23.8318 30.2125 23.2312 30.2126L2.67284 30.2126C2.17075 30.2126 1.75714 29.8213 1.73916 29.3196C1.70056 28.2289 1.66123 26.3628 1.77703 25.0114C1.93565 23.1602 2.5614 20.344 2.66701 19.8769C2.67481 19.8423 2.67838 19.8089 2.67838 19.7735L2.67838 17.2095C2.67838 16.165 3.52517 15.3182 4.56973 15.3182L11.2301 15.3182Z" fill="#4D4D4D"/>
<mask id="mask0_1593_21495" style="mask-type:alpha" maskUnits="userSpaceOnUse" x="1" y="15" width="24" height="16">
<path d="M11.2403 15.3182C12.2848 15.3182 13.1326 16.165 13.1326 17.2095L13.1326 19.4699C13.1326 19.6976 13.2949 19.893 13.5188 19.9347L18.8556 20.9285C21.1139 21.3489 22.8962 23.0896 23.3697 25.3374L24.1565 29.0721C24.2803 29.6598 23.8318 30.2125 23.2312 30.2126L2.67284 30.2126C2.17075 30.2126 1.75714 29.8213 1.73916 29.3196C1.70056 28.2289 1.66123 26.3628 1.77703 25.0114C1.94268 23.0782 2.61764 20.0925 2.67779 19.8289C2.68057 19.8167 2.69084 19.81 2.70335 19.8097C2.7182 19.8095 2.73009 19.7973 2.73009 19.7825L2.73009 17.2095C2.73009 16.165 3.57688 15.3182 4.62145 15.3182L11.2403 15.3182Z" fill="#ED6E00"/>
</mask>
<g mask="url(#mask0_1593_21495)">
<path d="M13.2206 21.5821L10.4177 21.5821C9.37316 21.5821 8.52637 20.7353 8.52637 19.6907L8.52637 15.9089C8.52637 15.3867 8.94976 14.9633 9.47205 14.9633L13.2206 14.9633L13.2206 21.5821Z" fill="#ED6E00"/>
<path d="M18.1879 20.489C18.6245 20.5652 18.9167 20.981 18.8405 21.4176C18.6498 22.5088 17.6108 23.2389 16.5196 23.0487L10.1112 21.9302C9.08222 21.7506 8.39365 20.7708 8.57325 19.7418L8.73093 18.8384L18.1879 20.489Z" fill="#ED6E00"/>
<path d="M13.0768 16.7943C13.3379 16.7943 13.5496 17.0059 13.5496 17.2671C13.5496 17.5282 13.3379 17.7399 13.0768 17.7399L10.7717 17.7399C10.5105 17.7399 10.2988 17.5282 10.2988 17.2671C10.2988 17.0059 10.5105 16.7943 10.7717 16.7943L13.0768 16.7943Z" fill="#4D4D4D"/>
<path d="M13.0768 18.6859C13.3379 18.6859 13.5496 18.8975 13.5496 19.1587C13.5496 19.4198 13.3379 19.6315 13.0768 19.6315L10.7717 19.6315C10.5105 19.6315 10.2988 19.4198 10.2988 19.1587C10.2988 18.8975 10.5105 18.6859 10.7717 18.6859L13.0768 18.6859Z" fill="#4D4D4D"/>
<path d="M1.25195 30.2123L24.1773 30.2123L24.1773 27.8472L1.25195 27.8472L1.25195 30.2123Z" fill="#ED6E00"/>
</g>
<path d="M26.8581 5.07676C27.6504 5.75738 27.7417 6.95209 27.0611 7.74447L25.5895 9.4577C25.4411 9.63048 25.437 9.88449 25.5796 10.062L28.9869 14.3013C30.4261 16.0916 30.6439 18.5734 29.5385 20.5871L27.7019 23.9328C27.4128 24.4592 26.7124 24.5863 26.2567 24.195L10.6617 10.7995C10.2809 10.4723 10.2221 9.90598 10.5353 9.51367C11.2167 8.66121 12.4028 7.21995 13.3712 6.27026C14.6977 4.96938 17.0074 3.24079 17.3919 2.95524C17.4203 2.93414 17.4448 2.91111 17.4679 2.88426L19.1385 0.939291C19.8192 0.14691 21.0133 0.0563139 21.8057 0.73694L26.8581 5.07676Z" fill="#4D4D4D"/>
<mask id="mask1_1593_21495" style="mask-type:alpha" maskUnits="userSpaceOnUse" x="10" y="0" width="21" height="25">
<path d="M26.8658 5.08337C27.6581 5.764 27.7494 6.95871 27.0688 7.75109L25.596 9.46573C25.4476 9.6385 25.4435 9.89252 25.5861 10.07L28.9869 14.3013C30.4261 16.0916 30.6439 18.5734 29.5385 20.5871L27.7019 23.9328C27.4128 24.4592 26.7124 24.5863 26.2567 24.195L10.6617 10.7995C10.2809 10.4723 10.2221 9.90598 10.5353 9.51367C11.2167 8.66121 12.4028 7.21995 13.3712 6.27026C14.7565 4.91174 17.214 3.08667 17.4314 2.92586C17.4414 2.91842 17.4536 2.92004 17.4632 2.92801C17.4747 2.93747 17.4916 2.93603 17.5013 2.92476L19.1778 0.972989C19.8584 0.180608 21.0525 0.0900118 21.8449 0.770638L26.8658 5.08337Z" fill="#ED6E00"/>
</mask>
<g mask="url(#mask1_1593_21495)">
<path d="M24.2863 11.1259L22.1601 9.29964C21.3677 8.61901 21.2771 7.4249 21.9577 6.63252L24.4219 3.76375C24.7622 3.36756 25.3593 3.32226 25.7555 3.66258L28.599 6.10508L24.2863 11.1259Z" fill="#ED6E00"/>
<path d="M28.7663 13.5336C29.0478 13.8759 28.9986 14.3816 28.6563 14.6632C27.8006 15.3667 26.5367 15.2436 25.8329 14.3882L21.7005 9.36416C21.0369 8.55743 21.153 7.36553 21.9597 6.70197L22.668 6.11943L28.7663 13.5336Z" fill="#ED6E00"/>
<path d="M27.2967 7.40039C27.4948 7.57055 27.5175 7.86908 27.3473 8.06717C27.1771 8.26527 26.8786 8.28792 26.6805 8.11776L24.9319 6.61579C24.7338 6.44564 24.7112 6.14711 24.8814 5.94902C25.0515 5.75092 25.35 5.72827 25.5481 5.89843L27.2967 7.40039Z" fill="#4D4D4D"/>
<path d="M26.0643 8.83545C26.2624 9.00561 26.285 9.30414 26.1149 9.50223C25.9447 9.70033 25.6462 9.72298 25.4481 9.55282L23.6995 8.05085C23.5014 7.8807 23.4788 7.58217 23.6489 7.38407C23.8191 7.18598 24.1176 7.16333 24.3157 7.33349L26.0643 8.83545Z" fill="#4D4D4D"/>
<path d="M9.58398 9.87402L26.9745 24.8118L28.5156 23.0177L11.1251 8.07991L9.58398 9.87402Z" fill="#ED6E00"/>
</g>
</svg>
