<svg width="32" height="32" viewBox="0 0 32 32" fill="none" xmlns="http://www.w3.org/2000/svg">
<ellipse cx="18.663" cy="13.3848" rx="12.5" ry="13.5" transform="rotate(45 18.663 13.3848)" fill="#E21C1C"/>
<path d="M15.4811 20.8094C16.2621 21.5904 16.2621 22.8568 15.4811 23.6378L13.4481 25.6707C12.4646 25.3179 11.5248 24.8355 10.6536 24.2227L5.58158 29.2947C4.99579 29.8804 4.04604 29.8804 3.46026 29.2947L2.75315 28.5876C2.16736 28.0018 2.16736 27.052 2.75315 26.4662L7.82512 21.3943C7.2123 20.5231 6.72991 19.5832 6.37707 18.5997L8.41001 16.5667C9.19105 15.7857 10.4574 15.7857 11.2384 16.5667L15.4811 20.8094Z" fill="#F7E0BF"/>
<circle cx="9" cy="6" r="4.5" fill="#EABC3F"/>
</svg>
