<svg width="32" height="32" viewBox="0 0 32 32" fill="none" xmlns="http://www.w3.org/2000/svg">
<g id="flat-color-icons:google">
<path id="Vector" d="M28.3548 13.5385H27.3399V13.4862H15.9999V18.5262H23.1208C22.0819 21.4602 19.2904 23.5662 15.9999 23.5662C11.8249 23.5662 8.4399 20.1813 8.4399 16.0063C8.4399 11.8312 11.8249 8.44625 15.9999 8.44625C17.9271 8.44625 19.6804 9.17327 21.0153 10.3608L24.5792 6.79691C22.3289 4.69964 19.3187 3.40625 15.9999 3.40625C9.04155 3.40625 3.3999 9.0479 3.3999 16.0063C3.3999 22.9646 9.04155 28.6063 15.9999 28.6063C22.9583 28.6063 28.5999 22.9646 28.5999 16.0063C28.5999 15.1614 28.513 14.3368 28.3548 13.5385Z" fill="#FFC107"/>
<path id="Vector_2" d="M4.85254 10.1416L8.99227 13.1776C10.1124 10.4043 12.8252 8.44625 15.9998 8.44625C17.9269 8.44625 19.6802 9.17327 21.0152 10.3608L24.5791 6.79691C22.3287 4.69964 19.3186 3.40625 15.9998 3.40625C11.1601 3.40625 6.96304 6.13856 4.85254 10.1416Z" fill="#FF3D00"/>
<path id="Vector_3" d="M15.9999 28.6007C19.2544 28.6007 22.2117 27.3552 24.4475 25.3297L20.5478 22.0298C19.2405 23.0246 17.6426 23.5624 15.9999 23.5607C12.7226 23.5607 9.9399 21.471 8.89158 18.5547L4.78271 21.7204C6.86802 25.8009 11.1029 28.6007 15.9999 28.6007Z" fill="#4CAF50"/>
<path id="Vector_4" d="M28.3549 13.5367H27.34V13.4844H16V18.5244H23.1209C22.624 19.9207 21.7288 21.1409 20.5461 22.0341L20.548 22.0328L24.4477 25.3328C24.1717 25.5835 28.6 22.3044 28.6 16.0044C28.6 15.1595 28.5131 14.3349 28.3549 13.5367Z" fill="#1976D2"/>
</g>
</svg>
