<svg width="24" height="24" viewBox="0 0 24 24" fill="none" xmlns="http://www.w3.org/2000/svg">
<path d="M11.9936 3.68097C7.01499 3.68097 3 6.89293 3 10.7923C3 13.3233 4.67024 15.5396 7.17559 16.8051L6.32762 19.9722C6.31164 20.0196 6.30918 20.0706 6.32052 20.1194C6.33187 20.1682 6.35657 20.2128 6.39186 20.2484C6.44333 20.2938 6.50954 20.3189 6.57816 20.319C6.63505 20.3145 6.68903 20.292 6.73233 20.2548L10.3812 17.7944C10.9198 17.8688 11.4627 17.9074 12.0064 17.91C16.9786 17.91 21 14.6981 21 10.7923C21 6.8865 16.9657 3.68097 11.9936 3.68097Z" fill="#392020"/>
</svg>
