<svg width="24" height="24" viewBox="0 0 24 24" fill="none" xmlns="http://www.w3.org/2000/svg">
<path fill-rule="evenodd" clip-rule="evenodd" d="M2 7.5C2 5.84315 3.34315 4.5 5 4.5H19C20.6569 4.5 22 5.84315 22 7.5V16.5C22 18.1569 20.6569 19.5 19 19.5H5C3.34315 19.5 2 18.1569 2 16.5V7.5ZM5 6H19C19.5003 6 19.9433 6.24489 20.2158 6.62133L11.9999 12.0986L3.78411 6.6214C4.05662 6.24492 4.49971 6 5 6ZM3.5 8.23477V16.5C3.5 17.3284 4.17157 18 5 18H19C19.8284 18 20.5 17.3284 20.5 16.5V8.23467L12.4159 13.624C12.164 13.792 11.8358 13.792 11.5839 13.624L3.5 8.23477Z" fill="#121212"/>
</svg>
