<svg width="20" height="20" viewBox="0 0 20 20" fill="none" xmlns="http://www.w3.org/2000/svg">
<path d="M18 10C18 14.4183 14.4183 18 10 18C8.62897 18 7.33844 17.6551 6.21053 17.0473C4.63728 16.1996 3.57863 16.9877 2.64499 17.1291C2.50336 17.1506 2.36231 17.0991 2.26103 16.9979C2.10729 16.8441 2.07803 16.6064 2.16295 16.4062C2.52939 15.5426 2.86585 13.9059 2.40708 12.5263C2.14299 11.7322 2 10.8828 2 10C2 5.58172 5.58172 2 10 2C14.4183 2 18 5.58172 18 10Z" stroke="currentColor" stroke-width="1.5" stroke-linecap="round" stroke-linejoin="round"/>
<path d="M7.05261 12.946C7.05261 11.3182 8.37219 9.99865 9.99998 9.99865C11.6278 9.99865 12.9473 11.3182 12.9473 12.946M11.6842 8.31579C11.6842 9.24598 10.9302 10 9.99998 10C9.06979 10 8.31577 9.24598 8.31577 8.31579C8.31577 7.38563 9.06979 6.63158 9.99998 6.63158C10.9302 6.63158 11.6842 7.38563 11.6842 8.31579Z" stroke="currentColor" stroke-width="1.5" stroke-linecap="round" stroke-linejoin="round"/>
</svg>
