<svg width="25" height="24" viewBox="0 0 25 24" fill="none" xmlns="http://www.w3.org/2000/svg">
<path d="M9.49288 15.2581C9.72262 15.4878 10.0951 15.4878 10.3248 15.2581L12.751 12.832L15.1771 15.2581C15.4068 15.4878 15.7793 15.4878 16.0091 15.2581C16.2388 15.0284 16.2388 14.6559 16.0091 14.4261L13.5829 12L16.0091 9.57387C16.2388 9.34413 16.2388 8.97164 16.0091 8.7419C15.7793 8.51216 15.4068 8.51216 15.1771 8.7419L12.751 11.168L10.3248 8.7419C10.0951 8.51216 9.72262 8.51216 9.49288 8.7419C9.26314 8.97164 9.26314 9.34413 9.49288 9.57387L11.919 12L9.49288 14.4261C9.26314 14.6559 9.26314 15.0284 9.49288 15.2581ZM12.7523 19.5C11.715 19.5 10.74 19.3032 9.82721 18.9095C8.91446 18.5158 8.1205 17.9815 7.44532 17.3066C6.77014 16.6318 6.23562 15.8381 5.84176 14.9258C5.4479 14.0135 5.25098 13.0386 5.25098 12.0013C5.25098 10.964 5.44782 9.98897 5.8415 9.07624C6.23519 8.16348 6.76947 7.36952 7.44434 6.69435C8.11922 6.01916 8.91283 5.48464 9.82518 5.09079C10.7375 4.69693 11.7123 4.5 12.7497 4.5C13.787 4.5 14.762 4.69684 15.6747 5.09053C16.5875 5.48421 17.3815 6.01849 18.0566 6.69336C18.7318 7.36824 19.2663 8.16186 19.6602 9.0742C20.054 9.98653 20.251 10.9614 20.251 11.9987C20.251 13.036 20.0541 14.011 19.6604 14.9238C19.2668 15.8365 18.7325 16.6305 18.0576 17.3057C17.3827 17.9808 16.5891 18.5154 15.6768 18.9092C14.7644 19.3031 13.7896 19.5 12.7523 19.5Z" fill="#9C9C9C"/>
</svg>
