<svg width="20" height="20" viewBox="0 0 20 20" fill="none" xmlns="http://www.w3.org/2000/svg">
<path d="M10.5578 3H9.44225C8.87057 3 8.58473 3 8.32839 3.09224C8.17184 3.14856 8.02475 3.22959 7.89239 3.33243C7.67564 3.50084 7.51709 3.74566 7.19999 4.23529C7.03759 4.48608 6.7982 4.85572 6.70279 4.95894C6.46636 5.21469 6.15636 5.38548 5.81848 5.44612C5.68212 5.47059 5.53573 5.47059 5.24295 5.47059C4.45889 5.47059 4.06686 5.47059 3.74631 5.56399C2.94445 5.79766 2.31773 6.44281 2.09074 7.26826C2 7.59823 2 8.0018 2 8.80893V12.0588C2 14.3881 2 15.5527 2.70294 16.2764C3.40589 17 4.53726 17 6.79999 17H13.2C15.4627 17 16.5941 17 17.297 16.2764C18 15.5527 18 14.3881 18 12.0588V8.80893C18 8.0018 18 7.59823 17.9093 7.26826C17.6822 6.44281 17.0555 5.79766 16.2537 5.56399C15.9331 5.47059 15.5411 5.47059 14.757 5.47059C14.4642 5.47059 14.3178 5.47059 14.1815 5.44612C13.8436 5.38548 13.5336 5.21469 13.2972 4.95894C13.2018 4.85571 12.9624 4.48607 12.8 4.23529C12.4829 3.74566 12.3243 3.50084 12.1076 3.33243C11.9752 3.22959 11.8282 3.14856 11.6716 3.09224C11.4153 3 11.1294 3 10.5578 3Z" fill="white" stroke="#121212" stroke-width="1.5" stroke-linecap="round" stroke-linejoin="round"/>
<path d="M15 8V8.008" stroke="#121212" stroke-width="2" stroke-linecap="round" stroke-linejoin="round"/>
<path d="M8 10.9975H12" stroke="#121212" stroke-width="1.5" stroke-linecap="round"/>
<path d="M10.002 9L10.002 13" stroke="#121212" stroke-width="1.5" stroke-linecap="round"/>
</svg>
