<svg width="20" height="20" viewBox="0 0 20 20" fill="none" xmlns="http://www.w3.org/2000/svg">
<path d="M13.2 2V5.2M6.80005 2V5.2" stroke="currentColor" stroke-width="1.5" stroke-linecap="round" stroke-linejoin="round"/>
<path d="M10.8 3.6H9.20005C6.18306 3.6 4.67457 3.6 3.7373 4.53725C2.80005 5.47452 2.80005 6.98301 2.80005 10V11.6C2.80005 14.617 2.80005 16.1255 3.7373 17.0627C4.67457 18 6.18306 18 9.20005 18H10.8C13.817 18 15.3256 18 16.2628 17.0627C17.2 16.1255 17.2 14.617 17.2 11.6V10C17.2 6.98301 17.2 5.47452 16.2628 4.53725C15.3256 3.6 13.817 3.6 10.8 3.6Z" stroke="currentColor" stroke-width="1.5" stroke-linecap="round" stroke-linejoin="round"/>
<path d="M2.80005 8.4H17.2" stroke="currentColor" stroke-width="1.5" stroke-linecap="round" stroke-linejoin="round"/>
<path d="M8.4001 15.2002L8.40009 11.4779C8.40009 11.3246 8.2907 11.2002 8.15576 11.2002H7.6001M11.6001 15.1986L12.7885 11.5138C12.7962 11.4901 12.8001 11.4652 12.8001 11.4402C12.8001 11.3077 12.6927 11.2002 12.5601 11.2002L10.8001 11.2" stroke="currentColor" stroke-width="1.5" stroke-linecap="round" stroke-linejoin="round"/>
</svg>
