<svg width="20" height="20" viewBox="0 0 20 20" fill="none" xmlns="http://www.w3.org/2000/svg">
<path d="M2.01262 11.2152C2.06491 13.7398 2.09106 15.002 2.99597 15.9372C3.90086 16.8722 5.16026 16.9047 7.67906 16.9699C9.23143 17.01 10.7685 17.01 12.3209 16.9699C14.8397 16.9047 16.0991 16.8722 17.0041 15.9372C17.9089 15.002 17.9351 13.7398 17.9873 11.2152C18.0042 10.4034 18.0042 9.59655 17.9873 8.7848C17.9351 6.26024 17.9089 4.99796 17.0041 4.0629C16.0991 3.12784 14.8397 3.09527 12.3209 3.03012C10.7685 2.98996 9.23143 2.98996 7.67905 3.03011C5.16026 3.09525 3.90086 3.12782 2.99596 4.06289C2.09106 4.99795 2.06491 6.26023 2.01261 8.7848C1.99579 9.59655 1.9958 10.4034 2.01262 11.2152Z" fill="white" stroke="#121212" stroke-width="1.5" stroke-linejoin="round"/>
<path d="M2 5.05884L7.53041 8.28458C9.56927 9.47378 10.4307 9.47378 12.4696 8.28458L18 5.05884" stroke="#121212" stroke-width="1.5" stroke-linejoin="round"/>
</svg>
