<svg width="24" height="24" viewBox="0 0 24 24" fill="none" xmlns="http://www.w3.org/2000/svg">
<g clip-path="url(#clip0_220_11434)">
<path d="M20.0657 19.5801C20.4799 19.5801 20.8157 19.9159 20.8157 20.3301C20.8157 20.7443 20.4799 21.0801 20.0657 21.0801H4.05664C3.64243 21.0801 3.30664 20.7443 3.30664 20.3301C3.30664 19.9159 3.64243 19.5801 4.05664 19.5801H20.0657Z" fill="currentColor"/>
<path d="M17.9714 9.67817L16.9107 10.7388L12.8449 6.67296L13.9055 5.6123L17.9714 9.67817Z" fill="currentColor"/>
<path d="M18.9437 4.63986C20.0918 5.78811 20.0919 7.65005 18.9437 8.79825L8.07815 19.6638C7.65718 20.0848 7.08595 20.3222 6.49061 20.3233L3.30449 20.3288C3.27719 20.3286 3.25505 20.3063 3.25477 20.2791L3.26029 17.0929C3.26136 16.4976 3.49878 15.9264 3.91975 15.5054L14.7853 4.63986C15.9336 3.49161 17.7955 3.49161 18.9437 4.63986Z" stroke="currentColor" stroke-width="1.5"/>
</g>
<defs>
<clipPath id="clip0_220_11434">
<rect width="24" height="24" fill="white" transform="translate(-0.00585938)"/>
</clipPath>
</defs>
</svg>
