<svg width="20" height="20" viewBox="0 0 20 20" fill="none" xmlns="http://www.w3.org/2000/svg">
<path d="M12.8 9.2C12.8 10.7464 11.5464 12 10 12C8.45361 12 7.20001 10.7464 7.20001 9.2C7.20001 7.6536 8.45361 6.4 10 6.4C11.5464 6.4 12.8 7.6536 12.8 9.2Z" stroke="currentColor" stroke-width="1.5"/>
<path d="M9.99999 2C13.8965 2 17.2 5.22638 17.2 9.14064C17.2 13.1172 13.8426 15.9078 10.7416 17.8054C10.5156 17.933 10.26 18 9.99999 18C9.73999 18 9.48439 17.933 9.25839 17.8054C6.16311 15.8893 2.79999 13.131 2.79999 9.14064C2.79999 5.22638 6.10354 2 9.99999 2Z" stroke="currentColor" stroke-width="1.5"/>
</svg>
