<svg width="101" height="100" viewBox="0 0 101 100" fill="none" xmlns="http://www.w3.org/2000/svg">
<path opacity="0.4" d="M0.5 50C0.5 22.3858 22.8858 0 50.5 0C78.1144 0 100.5 22.3858 100.5 50C100.5 77.6144 78.1144 100 50.5 100C22.8858 100 0.5 77.6144 0.5 50Z" fill="#BADFFF"/>
<path d="M36.2695 34.4436C36.2695 26.4621 42.6296 20 50.4648 20C58.3004 20 64.6604 26.4621 64.6604 34.4436C64.6604 42.4249 58.3004 48.8871 50.4648 48.8871C42.6296 48.8871 36.2695 42.4249 36.2695 34.4436Z" fill="#0C65DA"/>
<path d="M28.5265 65.4489C39.918 53.33 60.8553 52.6701 72.4933 65.4693L73.2917 66.2821C73.9256 66.9279 74.2716 67.8101 74.249 68.7229C74.2267 69.6357 73.8375 70.4992 73.1726 71.1116C67.1773 76.6335 59.2209 80.0009 50.5 80.0009C41.7792 80.0009 33.8227 76.6335 27.8275 71.1116C27.1626 70.4992 26.7735 69.6357 26.751 68.7229C26.7285 67.8101 27.0746 66.9279 27.7084 66.2821L28.5265 65.4489Z" fill="#0C65DA"/>
</svg>
