<svg width="81" height="80" viewBox="0 0 81 80" fill="none" xmlns="http://www.w3.org/2000/svg">
<path d="M50.0625 29.2C50.0625 34.1705 46.005 38.2 41 38.2C35.995 38.2 31.9375 34.1705 31.9375 29.2C31.9375 24.2294 35.995 20.2 41 20.2C46.005 20.2 50.0625 24.2294 50.0625 29.2Z" stroke="#5AB8FF" stroke-width="6"/>
<path d="M63.5554 58C68.6105 65.1586 71.0287 68.971 69.5885 72.0396C69.4439 72.3474 69.2746 72.6444 69.0825 72.9281C66.9999 76 61.6171 76 50.852 76H31.1481C20.3828 76 15.0002 76 12.9175 72.9281C12.7252 72.6444 12.556 72.3474 12.4116 72.0396C10.9712 68.971 13.3893 65.1586 18.4444 58" stroke="#D0D0D0" stroke-width="6" stroke-linecap="round" stroke-linejoin="round"/>
<path d="M45.558 59.777C44.3353 60.9462 42.7012 61.6 41.0007 61.6C39.2999 61.6 37.6657 60.9462 36.443 59.777C25.2468 49.0029 10.2426 36.967 17.5597 19.4934C21.516 10.0456 31.0129 4 41.0007 4C50.9883 4 60.4851 10.0456 64.4414 19.4934C71.7494 36.945 56.7818 49.04 45.558 59.777Z" stroke="#D0D0D0" stroke-width="6"/>
</svg>
