<svg width="20" height="20" viewBox="0 0 20 20" fill="none" xmlns="http://www.w3.org/2000/svg">
<path d="M5.55555 18V12.6209C5.55555 12.1102 5.55555 11.8548 5.35073 11.7913C4.90047 11.6516 4.22217 12.6661 4.22217 12.6661M5.55555 18H4.22217M5.55555 18H6.88893" stroke="currentColor" stroke-width="1.5" stroke-linecap="round" stroke-linejoin="round"/>
<path d="M7.33339 5.11122V3.55561C7.33339 2.82229 7.33339 2.45562 7.07304 2.22781C6.81267 2 6.39363 2 5.55555 2C4.71747 2 4.29843 2 4.03807 2.22781C3.77771 2.45562 3.77771 2.82229 3.77771 3.55561C3.77771 4.28893 3.77771 4.6556 4.03807 4.88341C4.29843 5.11122 4.71747 5.11122 5.55555 5.11122H7.33339ZM7.33339 5.11122V5.88903C7.33339 6.98901 7.33339 7.539 6.94285 7.88072C6.55231 8.22244 5.92375 8.22244 4.66663 8.22244H3.77771" stroke="currentColor" stroke-width="1.5" stroke-linecap="round" stroke-linejoin="round"/>
<path d="M14.0003 17.1108V2.88805M14.0003 17.1108C13.3779 17.1108 12.2149 15.338 11.778 14.8885M14.0003 17.1108C14.6227 17.1108 15.7857 15.338 16.2226 14.8885" stroke="currentColor" stroke-width="1.5" stroke-linecap="round" stroke-linejoin="round"/>
</svg>
