<svg width="17" height="16" viewBox="0 0 17 16" fill="none" xmlns="http://www.w3.org/2000/svg">
<path d="M8.5 1C11.7471 1 14.5 3.82309 14.5 7.24806C14.5 10.7275 11.7022 13.1693 9.118 14.8297C8.92967 14.9413 8.71667 15 8.5 15C8.28333 15 8.07033 14.9413 7.882 14.8297C5.3026 13.1531 2.5 10.7396 2.5 7.24806C2.5 3.82309 5.25296 1 8.5 1Z" fill="#0C65DA"/>
<path d="M10.8337 7.3001C10.8337 8.6532 9.78899 9.7501 8.50033 9.7501C7.21166 9.7501 6.16699 8.6532 6.16699 7.3001C6.16699 5.947 7.21166 4.8501 8.50033 4.8501C9.78899 4.8501 10.8337 5.947 10.8337 7.3001Z" fill="white"/>
</svg>
