<svg width="120" height="120" viewBox="0 0 120 120" fill="none" xmlns="http://www.w3.org/2000/svg">
<path fill-rule="evenodd" clip-rule="evenodd" d="M76.352 73.852C77.488 72.716 79.3301 72.716 80.4662 73.852L93.5574 86.9433C94.6934 88.0793 94.6934 89.9214 93.5574 91.0574C92.4214 92.1934 90.5793 92.1934 89.4433 91.0574L76.352 77.9662C75.216 76.8301 75.216 74.988 76.352 73.852Z" fill="#D0D0D0"/>
<path fill-rule="evenodd" clip-rule="evenodd" d="M26 58.0916C26 42.0248 39.0248 29 55.0916 29C71.1584 29 84.1833 42.0248 84.1833 58.0916C84.1833 74.1584 71.1584 87.1833 55.0916 87.1833C39.0248 87.1833 26 74.1584 26 58.0916ZM55.0916 34.8183C42.2381 34.8183 31.8183 45.2381 31.8183 58.0916C31.8183 70.9452 42.2381 81.3649 55.0916 81.3649C67.9452 81.3649 78.3649 70.9452 78.3649 58.0916C78.3649 45.2381 67.9452 34.8183 55.0916 34.8183Z" fill="#D0D0D0"/>
<path fill-rule="evenodd" clip-rule="evenodd" d="M44.3054 47.3047C45.4415 46.1686 47.2835 46.1686 48.4196 47.3047L55.09 53.9751L61.7604 47.3047C62.8965 46.1686 64.7386 46.1686 65.8746 47.3047C67.0106 48.4408 67.0106 50.2828 65.8746 51.4189L59.2042 58.0893L65.8746 64.7597C67.0106 65.8957 67.0106 67.7378 65.8746 68.8738C64.7386 70.0099 62.8965 70.0099 61.7604 68.8738L55.09 62.2034L48.4196 68.8738C47.2835 70.0099 45.4415 70.0099 44.3054 68.8738C43.1693 67.7378 43.1693 65.8957 44.3054 64.7597L50.9759 58.0893L44.3054 51.4189C43.1693 50.2828 43.1693 48.4408 44.3054 47.3047Z" fill="#5AB8FF"/>
</svg>
