<svg width="20" height="20" viewBox="0 0 20 20" fill="none" xmlns="http://www.w3.org/2000/svg">
<path d="M10.8889 9.11111C10.8889 7.14743 9.29703 5.55556 7.33339 5.55556C5.36971 5.55556 3.77783 7.14743 3.77783 9.11111C3.77783 11.0748 5.36971 12.6667 7.33339 12.6667C9.29703 12.6667 10.8889 11.0748 10.8889 9.11111Z" stroke="currentColor" stroke-width="1.5" stroke-linecap="round" stroke-linejoin="round"/>
<path d="M9.1454 6.05132C9.12273 5.88931 9.11108 5.7238 9.11108 5.55556C9.11108 3.59188 10.703 2 12.6666 2C14.6303 2 16.2222 3.59188 16.2222 5.55556C16.2222 7.51924 14.6303 9.11111 12.6666 9.11111C12.0048 9.11111 11.3852 8.93031 10.8546 8.61538" stroke="currentColor" stroke-width="1.5" stroke-linecap="round" stroke-linejoin="round"/>
<path d="M12.6667 18C12.6667 15.0545 10.2788 12.6667 7.33333 12.6667C4.38781 12.6667 2 15.0545 2 18" stroke="currentColor" stroke-width="1.5" stroke-linecap="round" stroke-linejoin="round"/>
<path d="M18 14.4444C18 11.4989 15.6121 9.11111 12.6666 9.11111" stroke="currentColor" stroke-width="1.5" stroke-linecap="round" stroke-linejoin="round"/>
</svg>
