<svg width="20" height="20" viewBox="0 0 20 20" fill="none" xmlns="http://www.w3.org/2000/svg">
<path d="M12.1053 6.21053C12.1053 3.88512 10.2201 2 7.89473 2C5.56932 2 3.6842 3.88512 3.6842 6.21053C3.6842 8.53592 5.56932 10.4211 7.89473 10.4211C10.2201 10.4211 12.1053 8.53592 12.1053 6.21053Z" stroke="currentColor" stroke-width="1.5" stroke-linecap="round" stroke-linejoin="round"/>
<path d="M2 16.3158C2 13.0602 4.63917 10.4211 7.89474 10.4211C8.79882 10.4211 9.65533 10.6246 10.4211 10.9883" stroke="currentColor" stroke-width="1.5" stroke-linecap="round" stroke-linejoin="round"/>
<path d="M14.6316 18C14.6316 18 18 16.4397 18 13.9064C18 12.9117 17.2909 12.1053 16.3158 12.1053C15.518 12.1053 14.9862 12.452 14.6316 13.1455C14.277 12.452 13.7452 12.1053 12.9474 12.1053C11.9723 12.1053 11.2632 12.9117 11.2632 13.9064C11.2632 16.4397 14.6316 18 14.6316 18Z" stroke="currentColor" stroke-width="1.5" stroke-linecap="round" stroke-linejoin="round"/>
</svg>
