<svg width="150" height="150" viewBox="0 0 150 150" fill="none" xmlns="http://www.w3.org/2000/svg">
<rect x="34.5762" y="14" width="80.106" height="98.7091" rx="8" fill="#E3F3FF"/>
<rect x="41.252" y="20.6543" width="31.1523" height="31.0545" rx="4" fill="white"/>
<path d="M52.6343 31.5135C52.6343 29.1189 54.5088 27.1802 56.8181 27.1802C59.1276 27.1802 61.0021 29.1189 61.0021 31.5135C61.0021 33.908 59.1276 35.8468 56.8181 35.8468C54.5088 35.8468 52.6343 33.908 52.6343 31.5135Z" fill="#BADFFF"/>
<path d="M50.3517 40.8169C53.7092 37.1811 59.8802 36.9831 63.3103 40.8231L63.5457 41.0669C63.7325 41.2607 63.8345 41.5253 63.8278 41.7992C63.8213 42.0731 63.7065 42.3321 63.5106 42.5158C61.7435 44.1725 59.3985 45.1828 56.8281 45.1828C54.2578 45.1828 51.9127 44.1725 50.1457 42.5158C49.9497 42.3321 49.8351 42.0731 49.8284 41.7992C49.8218 41.5253 49.9238 41.2607 50.1106 41.0669L50.3517 40.8169Z" fill="#BADFFF"/>
<path d="M79.0801 25.0911H105.08" stroke="#BADFFF" stroke-width="3" stroke-linecap="round"/>
<path d="M79.0801 35.0911H91.0801" stroke="#BADFFF" stroke-width="3" stroke-linecap="round"/>
<path d="M79.0801 45.0911H85.0801" stroke="#BADFFF" stroke-width="3" stroke-linecap="round"/>
<path d="M89.0801 45.0911H105.08" stroke="#BADFFF" stroke-width="3" stroke-linecap="round"/>
<path d="M94.3769 58.7263C95.028 60.0412 94.5003 61.64 93.1986 62.2973C86.6807 65.5894 82.1577 70.5523 79.2473 74.7518C77.7967 76.845 76.7634 78.7257 76.097 80.0722C75.7642 80.7443 75.3177 81.7856 75.1642 82.1455C74.8167 83.0799 73.9802 83.7408 72.9986 83.8551C72.0163 83.9693 71.0533 83.5182 70.5049 82.6871C69.0089 80.4207 67.1244 78.8903 65.5915 77.9225C64.8291 77.4413 63.5261 76.8419 63.069 76.6339C61.696 76.1647 60.9554 74.6617 61.4142 73.2708C61.8745 71.8764 63.3666 71.1226 64.7473 71.5875C65.8336 71.9534 67.3903 72.7807 68.3846 73.4082C69.5102 74.1187 70.8056 75.0776 72.0848 76.334C72.8022 75.0024 73.7427 73.4124 74.9302 71.699C78.168 67.0263 83.3062 61.3419 90.8419 57.5359C92.1435 56.8787 93.7263 57.4114 94.3769 58.7263Z" fill="#5AB8FF"/>
<path d="M34.5166 51.7115L29.7976 54.8837C27.6571 56.3226 25.8327 57.5489 24.4068 58.7149C22.8867 59.9579 21.5991 61.3026 20.6585 63.0819C19.6205 65.0455 19.2531 67.066 19.1044 69.2564C18.9892 70.9532 18.996 72.9656 19.0038 75.2999L19.0042 75.4267C19.0261 82.0002 19.0867 88.7151 19.2551 95.5172L19.2627 95.8225C19.4547 103.586 19.6096 109.849 20.4911 114.888C21.4161 120.177 23.1929 124.48 26.8371 128.155C30.4888 131.837 34.7911 133.625 40.0809 134.557C45.1291 135.447 51.4178 135.605 59.2256 135.802L59.5269 135.809C69.6248 136.064 79.6338 136.064 89.7319 135.809L90.0331 135.802C97.841 135.605 104.129 135.447 109.178 134.557C114.467 133.625 118.77 131.837 122.421 128.155C126.065 124.48 127.843 120.177 128.768 114.888C129.649 109.849 129.804 103.586 129.996 95.8225L130.004 95.5172C130.172 88.7151 130.232 82.0002 130.254 75.4267L130.255 75.2994C130.262 72.9661 130.269 70.9532 130.154 69.2566C130.005 67.0661 129.638 65.0455 128.6 63.0819C127.66 61.3026 126.372 59.9579 124.852 58.7149C123.426 57.5489 121.602 56.3227 119.461 54.8839L114.738 51.709V61.1171L115.013 61.302C117.333 62.8618 118.851 63.8871 119.961 64.7949C121.009 65.6512 121.464 66.2255 121.749 66.7641C121.863 66.9792 121.966 67.2192 122.056 67.5155L88.6093 87.7512C84.6505 90.1461 81.925 91.7895 79.6602 92.8635C77.4746 93.8994 76.0089 94.2574 74.6296 94.2574C73.2503 94.2574 71.784 93.8994 69.5989 92.8635C67.3336 91.7895 64.6086 90.1461 60.6496 87.7512L27.2021 67.5153C27.2926 67.2191 27.3957 66.9792 27.5094 66.7641C27.7941 66.2255 28.2496 65.6512 29.2968 64.7949C30.407 63.8871 31.9251 62.8618 34.2454 61.302L34.5166 61.1197L34.5166 51.7115Z" fill="#5AB8FF"/>
</svg>
