<svg width="335" height="147" viewBox="0 0 335 147" fill="none" xmlns="http://www.w3.org/2000/svg">
<rect x="127.341" y="13.5" width="80.106" height="98.7091" rx="8" fill="#E3F3FF"/>
<rect x="134.017" y="20.1543" width="31.1523" height="31.0545" rx="4" fill="white"/>
<path d="M145.399 31.0135C145.399 28.6189 147.274 26.6802 149.583 26.6802C151.893 26.6802 153.767 28.6189 153.767 31.0135C153.767 33.408 151.893 35.3468 149.583 35.3468C147.274 35.3468 145.399 33.408 145.399 31.0135Z" fill="#BADFFF"/>
<path d="M143.116 40.3169C146.474 36.6811 152.645 36.4831 156.075 40.3231L156.31 40.5669C156.497 40.7607 156.599 41.0253 156.592 41.2992C156.586 41.5731 156.471 41.8321 156.275 42.0158C154.508 43.6725 152.163 44.6828 149.593 44.6828C147.022 44.6828 144.677 43.6725 142.91 42.0158C142.714 41.8321 142.6 41.5731 142.593 41.2992C142.586 41.0253 142.688 40.7607 142.875 40.5669L143.116 40.3169Z" fill="#BADFFF"/>
<path d="M171.845 24.5908H197.845" stroke="#BADFFF" stroke-width="3" stroke-linecap="round"/>
<path d="M171.845 34.5908H183.845" stroke="#BADFFF" stroke-width="3" stroke-linecap="round"/>
<path d="M171.845 44.5908H177.845" stroke="#BADFFF" stroke-width="3" stroke-linecap="round"/>
<path d="M181.845 44.5908H197.845" stroke="#BADFFF" stroke-width="3" stroke-linecap="round"/>
<path d="M187.142 58.2263C187.793 59.5412 187.265 61.14 185.963 61.7973C179.445 65.0894 174.922 70.0523 172.012 74.2518C170.561 76.345 169.528 78.2257 168.862 79.5722C168.529 80.2443 168.082 81.2856 167.929 81.6455C167.581 82.5799 166.745 83.2408 165.763 83.3551C164.781 83.4693 163.818 83.0182 163.27 82.1871C161.774 79.9207 159.889 78.3903 158.356 77.4225C157.594 76.9413 156.291 76.3419 155.834 76.1339C154.461 75.6647 153.72 74.1617 154.179 72.7708C154.639 71.3764 156.131 70.6226 157.512 71.0875C158.598 71.4534 160.155 72.2807 161.149 72.9082C162.275 73.6187 163.57 74.5776 164.849 75.834C165.567 74.5024 166.507 72.9124 167.695 71.199C170.933 66.5263 176.071 60.8419 183.607 57.0359C184.908 56.3787 186.491 56.9114 187.142 58.2263Z" fill="#5AB8FF"/>
<path d="M127.281 51.2115L122.562 54.3837C120.422 55.8226 118.597 57.0489 117.171 58.2149C115.651 59.4579 114.364 60.8026 113.423 62.5819C112.385 64.5455 112.018 66.566 111.869 68.7564C111.754 70.4532 111.761 72.4656 111.768 74.7999L111.769 74.9267C111.791 81.5002 111.851 88.2151 112.02 95.0172L112.027 95.3225C112.219 103.086 112.374 109.349 113.256 114.388C114.181 119.677 115.958 123.98 119.602 127.655C123.253 131.337 127.556 133.125 132.846 134.057C137.894 134.947 144.182 135.105 151.99 135.302L152.292 135.309C162.389 135.564 172.398 135.564 182.497 135.309L182.798 135.302C190.606 135.105 196.894 134.947 201.942 134.057C207.232 133.125 211.535 131.337 215.186 127.655C218.83 123.98 220.607 119.677 221.532 114.388C222.414 109.349 222.568 103.086 222.76 95.3225L222.768 95.0172C222.936 88.2151 222.997 81.5002 223.019 74.9267L223.019 74.7994C223.027 72.4661 223.034 70.4532 222.919 68.7566C222.77 66.5661 222.403 64.5455 221.365 62.5819C220.424 60.8026 219.136 59.4579 217.616 58.2149C216.191 57.0489 214.366 55.8227 212.226 54.3839L207.503 51.209V60.6171L207.778 60.802C210.098 62.3618 211.616 63.3871 212.726 64.2949C213.774 65.1512 214.229 65.7255 214.514 66.2641C214.628 66.4792 214.731 66.7192 214.821 67.0155L181.374 87.2512C177.415 89.6461 174.69 91.2895 172.425 92.3635C170.239 93.3994 168.774 93.7574 167.394 93.7574C166.015 93.7574 164.549 93.3994 162.364 92.3635C160.098 91.2895 157.373 89.6461 153.414 87.2512L119.967 67.0153C120.057 66.7191 120.16 66.4792 120.274 66.2641C120.559 65.7255 121.014 65.1512 122.061 64.2949C123.172 63.3871 124.69 62.3618 127.01 60.802L127.281 60.6197L127.281 51.2115Z" fill="#5AB8FF"/>
</svg>
